<svg xmlns="http://www.w3.org/2000/svg" viewBox="0 0 169.81 281.29">
    <defs>
        <style>
    .path {
        fill: #000;
      }      
    
    @media (prefers-color-scheme: dark) {
      .path {
        fill: #fff;
      }
    }
</style>
    </defs>
    <g id="Layer_2" data-name="Layer 2">
        <g id="Layer_1-2" data-name="Layer 1">
            <path class="path" d="M71.36,91.33l16.23,26.82c1.81-.73,3.59-1.45,5.34-2.18q-12-18.06-25.38-36.7Q58.34,66.44,49.18,54.33,60.27,72.82,71.36,91.33Z" />
            <path class="path" d="M166.74,238.14c5.7-1.6,1.94-24.45.76-83.1-.37-18.41-.23-27.94-.76-27.95-.74,0-2.27,18.51-5.61,89.92-12.39-18.35-34.42-50.16-47.08-68.67-2.41,1.13-4.8,2.21-7.2,3.25,8.28,13.9,15.42,25.46,20.83,34.08,4.8,7.66,10.8,17.09,18.76,28.34C158.19,230.59,164.06,238.89,166.74,238.14Z" />
            <path class="path" d="M163.4,261.69c-20.78-29.77-44.05-67.2-66.93-94.21,10.57,26,27,54.48,42,91.23l-100.19.16C-23.31,128.78,182.83,180.75,167.5,60.41,160.19,6.51,95.9-5.83,50.79,2.26,39.8,5.37,3.61,7.86,2.42,20.55,4.34,55.78,7.57,91.8,10.93,127,20.19,206.47,17.78,42,17.22,26c35.9-7.57,78.51-11.91,110,10.38,29.79,23.61,12.45,68.78-20.18,80C43.73,140.9-23.55,167,8.06,249.43c6,10.64,9.12,28.1,21.58,31.58.73-.21,130.67.45,131.3.24C172.33,279.91,169.36,267.79,163.4,261.69Z" />
        </g>
    </g>
</svg>