<svg xmlns="http://www.w3.org/2000/svg" width="280" height="100.668" viewBox="0 312.749 280 100.668"><path d="M45.489 364.053a3.138 3.138 0 1 1-6.276-.002 3.138 3.138 0 0 1 6.276.002m.585.034 11.688-15.259-15.357 11.014-15.088-11.276 11.19 15.508.035.014-.035.013-11.19 15.507 15.088-11.275 15.357 11.014-11.688-15.26z"/><path d="m54.808 366.012-.003-4.398 6.28 2.263M29.895 361.614l.001 4.398-6.279-2.263M40.152 376.27l4.398-.002-2.263 6.279M44.55 351.356l-4.398.002 2.264-6.279M71.775 340.89c-15.757-19.296-37.899-24.904-56.282-22.187-3.894 7.63-5.294 14.263-5.067 22.3 18.99-11.123 43.192-10.806 61.349-.113"/><path fill="#F4C000" d="M7.682 346.89c-10.584 23.885-3.056 49.808 9.849 64.071 10.007-1.54 15.168-3.532 21.281-8.061-17.49-10.98-31.696-28.465-31.13-56.01"/><path fill="#CD1719" d="M45.151 402.055c21.734-2.49 41.657-19.696 48.449-40.676-5.208-7.788-11.931-12.844-18.451-15.471.452 24.338-10.754 44.601-29.998 56.147"/><path d="M232.796 389.362c4.07 0 6.444 2.636 6.444 6.026 0 3.418-2.374 6.027-6.393 6.027h-1.982V389.36l1.931.002zm.104 15.419c6.366 0 10.385-3.887 10.385-9.393 0-5.505-4.045-9.393-10.438-9.393h-6v18.785h6.053v.001zm-11.941.287v-19.072h-3.967v10.672l-1.199-1.07-10.281-9.888h-.156v19.071h3.94v-10.67l1.226 1.069 10.307 9.888h.13zm-30.031-6.418c.783-1.773 1.774-4.279 2.322-5.584.574 1.645 1.41 3.627 2.271 5.584h-4.593zm-6.888 6.131h4.2l1.462-3.312h7.019l1.513 3.312h4.2l-9.131-19.071h-.156l-9.107 19.071zm-11.941-8.244h3.235c1.435 0 2.583.861 2.583 2.505s-1.253 2.53-2.845 2.53h-2.974v-5.035zm0-2.713v-4.619h2.505c1.592 0 2.661.835 2.661 2.4 0 1.044-.496 1.774-1.253 2.062-.47.131-.965.157-1.514.157h-2.399zm6.835 1.096c1.332-.574 2.4-1.879 2.4-3.652 0-3.522-3-5.271-6.992-5.271h-6.078v18.786h6.627c4.227 0 7.148-1.878 7.148-5.479 0-2.14-1.435-3.837-3.105-4.384m-23.075-5.558c1.826 0 3.105.938 3.105 2.817 0 1.904-1.227 2.791-3 2.791h-2.871v-5.609l2.766.001zm-6.705-3.366v18.785h3.939v-6.574h2.714l3.313 6.574h4.253l-3.94-7.252c2.035-.81 3.574-2.609 3.574-5.35 0-4.018-2.896-6.184-7.253-6.184h-6.6v.001zm-5.336 18.785v-3.365h-8.453v-4.539h6.836v-3.236h-6.836v-4.278h8.062v-3.366h-12.081v18.785h12.472zm-16.094-18.785h-4.357l-2.452 5.428a240.651 240.651 0 0 0-2.531 5.844c-.652-1.826-1.513-3.679-2.479-5.844l-2.453-5.428h-4.383l9.263 19.072h.156l9.236-19.072zM217.053 366.623h8.401v-3.052h-8.401v3.052zm-11.334-7.488c1.826 0 3.105.939 3.105 2.818 0 1.905-1.227 2.792-3.001 2.792h-2.87v-5.61h2.766zm-6.705-3.366v18.786h3.939v-6.575h2.713l3.314 6.575h4.252l-3.939-7.254c2.035-.809 3.574-2.608 3.574-5.348 0-4.018-2.896-6.184-7.253-6.184h-6.6zm-5.076 18.786v-3.365h-8.453v-4.541h6.835v-3.234h-6.835v-4.279h8.062v-3.366h-12.08v18.786h12.471zm-16.431 0v-3.365h-7.228v-15.42h-4.018v18.786h11.246zm-16.321-1.071v-7.592h-3.836v5.01c-.652.208-1.645.364-2.557.364-3.705 0-6.054-2.713-6.054-6.104 0-3.34 2.349-6.08 6.236-6.08 2.53 0 4.409.73 5.636 1.304v-3.705c-1.07-.496-3.105-1.279-5.896-1.279-5.818 0-10.02 4.279-10.02 9.759 0 5.505 4.148 9.758 10.098 9.758 2.295.001 4.723-.573 6.393-1.435m-20.334 1.071v-3.365h-8.453v-4.541h6.836v-3.234h-6.836v-4.279h8.062v-3.366h-12.08v18.786h12.471zm-24.686.365c4.435 0 6.992-2.035 6.992-5.428 0-3.156-2.035-4.539-5.323-5.818-2.557-.965-3.574-1.722-3.574-2.818 0-1.2 1.252-1.957 3.183-1.957 1.722 0 3.496.496 4.592 1.148v-3.705c-1.174-.522-3.026-.939-4.905-.939-4.044 0-6.81 2.14-6.81 5.479 0 3.262 1.931 4.645 5.218 5.845 2.583.938 3.705 1.591 3.705 2.844 0 .913-.835 1.462-2.27 1.67-.496.104-1.07.13-1.67.104-1.696-.104-3.418-.679-4.722-1.357v3.861c1.356.601 3.444 1.071 5.584 1.071M269.928 328.908c1.827 0 3.105.939 3.105 2.818 0 1.904-1.227 2.792-3 2.792h-2.871v-5.609h2.766zm-6.705-3.366v18.785h3.939v-6.575h2.713l3.314 6.575h4.253l-3.94-7.253c2.035-.809 3.574-2.609 3.574-5.349 0-4.018-2.896-6.184-7.252-6.184h-6.601zm-5.075 18.785v-3.366h-8.453v-4.54h6.836v-3.235h-6.836v-4.279h8.062v-3.366h-12.08v18.785h12.471zm-18.36 0v-18.785h-4.019v7.592h-7.748v-7.592h-4.019v18.785h4.019v-7.853h7.748v7.853h4.019zm-21.134-17.846c-.965-.521-2.844-1.304-5.479-1.304-5.792 0-9.94 4.279-9.94 9.758 0 5.505 4.148 9.758 9.81 9.758 2.635 0 4.775-.73 5.74-1.252v-3.731a11.9 11.9 0 0 1-5.453 1.304c-3.705 0-6.079-2.713-6.079-6.079 0-3.339 2.4-6.079 6.21-6.079 2.296 0 4.07.73 5.191 1.305v-3.68zm-26.035 18.211c4.436 0 6.992-2.035 6.992-5.427 0-3.157-2.035-4.54-5.322-5.818-2.557-.965-3.574-1.722-3.574-2.817 0-1.2 1.252-1.957 3.183-1.957 1.722 0 3.496.496 4.593 1.148v-3.705c-1.174-.521-3.027-.939-4.906-.939-4.043 0-6.809 2.139-6.809 5.479 0 3.261 1.93 4.644 5.218 5.844 2.583.939 3.705 1.592 3.705 2.844 0 .914-.835 1.461-2.271 1.67-.495.104-1.069.13-1.67.104-1.695-.104-3.418-.678-4.722-1.357v3.862c1.357.6 3.443 1.069 5.583 1.069m-8.873-15.784v-3.366h-14.533v3.366h5.244v15.419h4.018v-15.419h5.271zm-18.298-3.366h-4.019V337.1c0 2.453-1.356 3.914-3.835 3.914-2.452 0-3.835-1.461-3.835-3.914v-11.558h-4.019v11.95c0 4.383 2.922 7.201 7.854 7.201 4.957 0 7.854-2.817 7.854-7.201v-11.95zm-20.617 18.785v-3.366h-8.453v-4.54h6.836v-3.235h-6.836v-4.279h8.062v-3.366h-12.08v18.785h12.471zm-27.439-15.419c4.07 0 6.444 2.635 6.444 6.027 0 3.418-2.374 6.027-6.392 6.027h-1.983v-12.054h1.931zm.104 15.419c6.366 0 10.384-3.887 10.384-9.393 0-5.505-4.044-9.393-10.437-9.393h-6.001v18.785h6.054z"/></svg>