<?xml version="1.0" encoding="utf-8"?>
<!-- Generator: $$$/GeneralStr/196=Adobe Illustrator 27.6.0, SVG Export Plug-In . SVG Version: 6.00 Build 0)  -->
<svg version="1.1" id="Ebene_2" xmlns="http://www.w3.org/2000/svg" xmlns:xlink="http://www.w3.org/1999/xlink" x="0px" y="0px"
	 viewBox="0 0 841.9 595.3" style="enable-background:new 0 0 841.9 595.3;" xml:space="preserve">
<style type="text/css">
	.st0{fill:none;}
	.st1{fill:url(#SVGID_1_);}
	.st2{fill:url(#SVGID_00000056417219408814466190000012008766720191177115_);}
	.st3{fill:url(#SVGID_00000143588847764039020970000003896669960227335580_);}
	.st4{fill:url(#SVGID_00000007423680563141471040000001932172432490680970_);}
	.st5{fill:#004F9F;}
	.st6{fill:#FFED00;}
</style>
<g>
	<path class="st0" d="M219.3,373.7c-35.8-6.5-67.1-67.1-78.1-82.6c-0.5-0.7-0.9,1-1.1,4.2c3,5,5.9,12.2,9.7,18.1
		c7.3,11.4,37.5,69.3,72.1,69.3c38.1,0,67.2-24.5,106.8-48.5c18.7-11.3,42.9-22.6,69.7-31.7l0-6.3c-14.4,5-28.4,10.9-41.8,17.4
		C304.4,339.2,262.3,381.5,219.3,373.7z"/>
	<path class="st0" d="M219.3,356.3c-35.8-6.5-67.1-67.1-78.1-82.6c-0.5-0.7-0.9,1-1.1,4.2c3,5,5.9,12.2,9.7,18.1
		c7.3,11.4,37.5,69.3,72.1,69.3c38.1,0,67.2-24.5,106.8-48.5c18.7-11.3,42.9-22.6,69.8-31.7l0-6.3c-14.4,5-28.4,10.9-41.9,17.5
		C304.4,321.8,262.3,364.1,219.3,356.3z"/>
	<linearGradient id="SVGID_1_" gradientUnits="userSpaceOnUse" x1="708.1582" y1="248.5074" x2="708.1582" y2="496.2655">
		<stop  offset="0" style="stop-color:#8799CE"/>
		<stop  offset="0.7079" style="stop-color:#D6DAEF"/>
		<stop  offset="1" style="stop-color:#FFFFFF"/>
	</linearGradient>
	<path class="st1" d="M826.8,356.1l0-7.7c0,0-101-59.4-216.7-86.6l-20.5,5C713.6,289.9,826.8,356.1,826.8,356.1z"/>
	
		<linearGradient id="SVGID_00000137094928470569421070000010640202130744425915_" gradientUnits="userSpaceOnUse" x1="431.9196" y1="248.5074" x2="431.9196" y2="496.2665">
		<stop  offset="0" style="stop-color:#8799CE"/>
		<stop  offset="0.7079" style="stop-color:#D6DAEF"/>
		<stop  offset="1" style="stop-color:#FFFFFF"/>
	</linearGradient>
	<path style="fill:url(#SVGID_00000137094928470569421070000010640202130744425915_);" d="M398.4,302.6c-26.8,9.1-51,20.4-69.7,31.7
		c-39.6,23.9-68.7,48.5-106.8,48.5c-34.6,0-64.8-57.9-72.1-69.3c-3.8-5.9-6.7-13-9.7-18.1c0.3-3.2,0.6-4.9,1.1-4.2
		c11,15.4,42.3,76.1,78.1,82.6c42.9,7.7,85.1-34.5,137.3-60c13.4-6.6,27.4-12.4,41.8-17.4l0-11.1c-26.8,9.1-51.1,20.4-69.8,31.7
		c-39.6,23.9-68.7,48.5-106.8,48.5c-34.6,0-64.8-57.9-72.1-69.3c-3.8-5.9-6.7-13-9.7-18.1c0.3-3.2,0.6-4.9,1.1-4.2
		c11,15.4,42.3,76.1,78.1,82.6c42.9,7.7,85.1-34.5,137.3-60c13.5-6.6,27.5-12.4,41.9-17.5l0-11.1c-26.9,9.1-51.1,20.4-69.9,31.7
		C289.1,323.4,260,348,221.9,348c-34.6,0-64.8-57.9-72.1-69.3c-6.9-10.7-10.6-25.3-17.9-24.5c-0.9,0.1-0.6,7.2-0.3,17.7
		c-0.6,1.4-0.3,8,0,17.4c-0.4,0.9-0.4,4.2-0.3,9.1c-0.4,4.1-1,8.2-1.9,12.1c-2.9,12.7-19.3,25.2-26.1,27.8
		c-36.3,13.9-66.2-10.3-66.2-10.3s4.6,14.8,17.3,20.1c13.5,5.6,34.8,5.6,54.6-0.8c6-1.9,10.9-4.9,14.9-8.4
		c-6.2,8.2-15.8,14.9-20.6,16.8c-36.3,13.9-66.2-10.3-66.2-10.3s4.6,14.8,17.3,20.1c13.5,5.6,34.8,5.6,54.6-0.8
		c6-1.9,10.9-4.9,14.9-8.4c-6.2,8.2-15.8,14.9-20.6,16.8c-36.3,13.9-66.2-10.3-66.2-10.3s4.6,14.8,17.3,20.1
		c13.5,5.6,34.8,5.6,54.6-0.8c6-1.9,10.9-4.9,14.9-8.4c-6.2,8.2-15.8,14.9-20.6,16.8C67.1,404.2,37.1,380,37.1,380
		s4.6,14.8,17.3,20.1c13.5,5.6,34.8,5.6,54.6-0.8c6-1.9,10.9-4.9,14.9-8.4c-6.2,8.2-15.8,14.9-20.6,16.8
		c-36.3,13.9-66.2-10.3-66.2-10.3s4.6,14.8,17.3,20.1c13.5,5.6,34.8,5.6,54.6-0.8c6-1.9,10.9-4.9,14.9-8.4
		c-6.2,8.2-15.8,14.9-20.6,16.8c-36.3,13.9-66.2-10.3-66.2-10.3s4.6,14.8,17.3,20.1c13.5,5.6,34.8,5.6,54.6-0.8
		c6-1.9,10.9-4.9,14.9-8.4c-6.2,8.2-15.8,14.9-20.6,16.8c-36.3,13.9-66.2-10.3-66.2-10.3s4.6,14.8,17.3,20.1
		c13.5,5.6,34.8,5.6,54.6-0.8c6-1.9,10.9-4.9,14.9-8.4c-6.2,8.2-15.8,14.9-20.6,16.8c-36.3,13.9-66.2-10.3-66.2-10.3
		s4.6,14.8,17.3,20.1c13.5,5.6,34.8,5.6,54.6-0.8c6-1.9,10.9-4.9,14.9-8.4c-6.2,8.2-15.8,14.9-20.6,16.8
		c-36.3,13.9-66.2-10.3-66.2-10.3s4.6,14.8,17.3,20.1c13.5,5.6,34.8,5.6,54.6-0.8c22.8-7.3,29.4-29.9,29.8-33
		c1-8.2,0.4-43.2,2.4-40.3c11,15.4,42.3,76.1,78.1,82.6c42.9,7.7,85.1-34.5,137.3-60c46.9-22.9,100.4-37.3,154-37.3
		c150.2,0,316.1,97.1,316.1,97.1l0-7.7c0,0-169.8-99.9-321.2-99.9c-64.9,0.2-134.8,25.6-176.9,51C289.1,462.4,260,487,221.9,487
		c-34.6,0-64.8-57.9-72.1-69.3c-3.8-5.9-6.7-13-9.7-18.1c0.3-3.2,0.6-4.9,1.1-4.2c11,15.4,42.3,76.1,78.1,82.6
		c42.9,7.7,85.1-34.5,137.3-60c46.9-22.9,100.4-37.3,154-37.3c150.2,0,316.1,97.1,316.1,97.1l0-7.7c0,0-169.8-99.9-321.2-99.9
		c-64.9,0.2-134.8,25.6-176.9,51c-39.6,23.9-68.7,48.5-106.8,48.5c-34.6,0-64.8-57.9-72.1-69.3c-3.8-5.9-6.7-13-9.7-18.1
		c0.3-3.2,0.6-4.9,1.1-4.2c11,15.4,42.3,76.1,78.1,82.6c42.9,7.7,85.1-34.5,137.3-60c46.9-22.9,100.4-37.3,154-37.3
		c150.2,0,316.1,97.1,316.1,97.1l0-7.7c0,0-169.8-99.9-321.2-99.9c-64.9,0.2-134.8,25.6-176.9,51c-39.6,23.9-68.7,48.5-106.8,48.5
		c-34.6,0-64.8-57.9-72.1-69.3c-3.8-5.9-6.7-13-9.7-18.1c0.3-3.2,0.6-4.9,1.1-4.2c11,15.4,42.3,76.1,78.1,82.6
		c42.9,7.7,85.1-34.5,137.3-60c46.9-22.9,100.4-37.3,154-37.3c150.2,0,316.1,97.1,316.1,97.1l0-7.7c0,0-169.8-99.9-321.2-99.9
		c-64.9,0.2-134.8,25.6-176.9,51c-39.6,23.9-68.7,48.5-106.8,48.5c-34.6,0-64.8-57.9-72.1-69.3c-3.8-5.9-6.7-13-9.7-18.1
		c0.3-3.2,0.6-4.9,1.1-4.2c11,15.4,42.3,76.1,78.1,82.6c42.9,7.7,85.1-34.5,137.3-60c46.9-22.9,100.4-37.3,154-37.3
		c150.2,0,316.1,97.1,316.1,97.1l0-7.7c0,0-169.8-99.9-321.2-99.9c-64.9,0.2-134.8,25.6-176.9,51c-39.6,23.9-68.7,48.5-106.8,48.5
		c-34.6,0-64.8-57.9-72.1-69.3c-3.8-5.9-6.7-13-9.7-18.1c0.3-3.2,0.6-4.9,1.1-4.2c11,15.4,42.3,76.1,78.1,82.6
		c42.9,7.7,85.1-34.5,137.3-60c46.9-22.9,100.4-37.3,154-37.3c150.2,0,316.1,97.1,316.1,97.1l0-7.7c0,0-169.8-99.9-321.2-99.9
		c-64.9,0.2-134.8,25.6-176.9,51c-39.6,23.9-68.7,48.5-106.8,48.5c-34.6,0-64.8-57.9-72.1-69.3c-3.8-5.9-6.7-13-9.7-18.1
		c0.3-3.2,0.6-4.9,1.1-4.2c11,15.4,42.3,76.1,78.1,82.6c42.9,7.7,85.1-34.5,137.3-60c14-6.8,28.7-12.9,43.7-18.1l-2,0.5L398.4,302.6
		z"/>
	
		<linearGradient id="SVGID_00000116211123149077751950000012445076235911442844_" gradientUnits="userSpaceOnUse" x1="685.4458" y1="248.5075" x2="685.4458" y2="496.2657">
		<stop  offset="0" style="stop-color:#8799CE"/>
		<stop  offset="0.7079" style="stop-color:#D6DAEF"/>
		<stop  offset="1" style="stop-color:#FFFFFF"/>
	</linearGradient>
	<path style="fill:url(#SVGID_00000116211123149077751950000012445076235911442844_);" d="M826.8,373.5l0-7.7
		c0,0-124.9-73.5-256-94.4l-26.7,6.5C684.5,290.2,826.8,373.5,826.8,373.5z"/>
	
		<linearGradient id="SVGID_00000038396800862199067390000009897130085244383665_" gradientUnits="userSpaceOnUse" x1="646.2304" y1="248.5075" x2="646.2304" y2="496.2665">
		<stop  offset="0" style="stop-color:#8799CE"/>
		<stop  offset="0.7079" style="stop-color:#D6DAEF"/>
		<stop  offset="1" style="stop-color:#FFFFFF"/>
	</linearGradient>
	<path style="fill:url(#SVGID_00000038396800862199067390000009897130085244383665_);" d="M510.7,293.8
		c150.2,0,316.1,97.1,316.1,97.1l0-7.7c0,0-158.7-93.3-306-99.6L465.7,297C480.6,294.9,495.6,293.8,510.7,293.8z"/>
</g>
<g>
	<path class="st5" d="M230.9,149.1c0,0-0.4-15.2-19.5-15.1c-19.4,0.1-19.3,15.2-19.3,15.2l-0.5,96l-0.1,4.5c0,0-8.7-6.8-52.9-79
		c-3.9-6.4-14.1-24.7-26.6-32.6c-10.1-6.4-22.8-3.5-26.6-1.1c-9,5.6-8.6,20.2-8.6,20.2l-0.4,141.3c0,0,0,14.4,19.1,14.4
		s19.5-15.4,19.5-15.4l-0.4-97.8l0-2.5l1.9,2.3c0,0,8.2,10.9,52.4,78.2c4.1,6.3,13.2,25,25.6,32.8c10.1,6.4,23.5,2.4,27.3,0
		c9-5.6,8.6-19.4,8.6-19.4L230.9,149.1z"/>
	<path class="st5" d="M275.3,210.2c-4.3-1-14.6-4.1-20.9-7.3c-7.5-3.8-9.9-11.3-10-16.5c-0.1-5.2-0.1-14,7.4-21.4
		c7.6-7.6,14.1-7.5,19.6-7.6c5.5-0.1,13.3,1,19,4.7c5.1,3.3,9.2,8.3,9.7,13.4c0.4,4.1-1.1,9.2-5.4,9.2c-5,0-7.3-1.6-8.6-5.2
		c-1.4-3.7-5.4-6.5-8.9-7.7c-3.3-1.2-8.8-0.7-11.9,0.9c-3.1,1.7-6,5.4-6,10c0.1,7.2,9.7,9.4,13.7,10.4c5,1.3,14.4,3.4,20.9,7.2
		c7.7,4.5,10,13.1,10,18.2c0,5.2,0.4,13.6-7.9,20.9c-8.4,7.5-15.2,7.7-21.1,7.7c-5.9,0-14.1-1.3-20.2-5c-5.5-3.4-10.1-8.9-10.6-14
		c-0.4-4.1,0.2-10.5,6.4-10.9c5.4-0.4,7.4,3.6,8.8,7.2c1.4,3.8,5.8,6.6,9.5,7.9c3.6,1.3,9.5,0.9,12.9-0.7c3.4-1.6,6.3-3.8,7-8.2
		C289.9,215.4,280.5,211.5,275.3,210.2z"/>
	<path class="st5" d="M328.9,216.9c1.9,5,6.2,14,17.4,14c11.2,0,13.8-6.3,15.2-9.6c1.7-3.9,5.2-6.1,8.8-5.9c4.7,0.2,7.1,4.2,6.9,9.4
		c-0.2,5.7-3.7,10.9-10.3,15.9c-6.5,4.9-18.5,8.3-29.6,5.6c-14.8-3.5-20.1-13.8-23.6-23.4c-3.6-10.1-3-19-3-19s-0.5-12.9,3.1-22.7
		c3.5-9.4,8.7-19.4,23.4-22.8c11-2.5,22.9,0.8,29.4,5.5c6.6,4.9,10,10,10.2,15.5c0.2,5.1-2.1,8.9-6.8,9.1c-3.6,0.2-7-1.9-8.7-5.7
		c-1.4-3.2-4-9.4-15.1-9.4c-11.1,0-15.3,8.7-17.2,13.6c-2.6,6.6-2.2,16.4-2.2,16.4S326.4,210.1,328.9,216.9z"/>
</g>
<g>
	<g>
		<circle class="st0" cx="446.8" cy="236.3" r="29.2"/>
		<path class="st6" d="M405,162.5L404.5,306L699,235.5L405,162.5z M446.8,265.5c-16.2,0-29.2-13.1-29.2-29.2s13.1-29.2,29.2-29.2
			c16.2,0,29.2,13.1,29.2,29.2S462.9,265.5,446.8,265.5z M517.3,265.5c-16.2,0-29.2-13.1-29.2-29.2s13.1-29.2,29.2-29.2
			s29.2,13.1,29.2,29.2S533.4,265.5,517.3,265.5z"/>
	</g>
	<path class="st5" d="M500,251.5l10.4-25.1h1.6c0,0,4.6,8,6,11.1c1.4,3.1,5.7,14.1,5.7,14.1L500,251.5z"/>
	<path class="st5" d="M512.8,222.8l5.5-14.5c0,0,5.8,9.4,9.1,16.6c3.5,7.6,9.1,25,9.1,25l-10.8-0.1c0,0-1.9-5.5-4.3-11.5
		C518.5,231.2,512.8,222.8,512.8,222.8z"/>
	<path class="st5" d="M496.5,254.2c0,0,2.5,4.5,4.8,4.6c2.3,0.1,32.1,0,32.1,0l5.2-4.7L496.5,254.2z"/>
	<path class="st5" d="M464.9,218.8c0,0-0.1-3.6-4.6-3.5c-4.5,0-4.5,3.6-4.5,3.6l-0.1,22.4l0,1c0,0-2-1.6-12.4-18.5
		c-0.9-1.5-3.3-5.8-6.2-7.6c-2.4-1.5-5.3-0.8-6.2-0.3c-2.1,1.3-2,4.7-2,4.7l-0.1,33.1c0,0,0,3.4,4.5,3.4s4.6-3.6,4.6-3.6l-0.1-22.9
		l0-0.6l0.4,0.5c0,0,1.9,2.6,12.3,18.3c1,1.5,3.1,5.8,6,7.7c2.4,1.5,5.5,0.6,6.4,0c2.1-1.3,2-4.5,2-4.5L464.9,218.8z"/>
</g>
</svg>
