<?xml version="1.0" encoding="utf-8"?>
<!-- Generator: Adobe Illustrator 24.1.1, SVG Export Plug-In . SVG Version: 6.00 Build 0)  -->
<svg version="1.1" id="Ebene_1" xmlns="http://www.w3.org/2000/svg" xmlns:xlink="http://www.w3.org/1999/xlink" x="0px" y="0px"
	 viewBox="0 0 466.3 100" style="enable-background:new 0 0 466.3 100;" xml:space="preserve">
<style type="text/css">
	.st0{fill:#FD2F2D;}
	.st1{enable-background:new    ;}
	.st2{fill:#91BDFF;}
	.st3{fill:#FD0000;}
	.st4{fill:#FEFEFE;}
	.st5{fill:#FE0202;}
	.st6{fill:#FEFEFD;}
	.st7{fill:#FEFAFA;}
	.st8{fill:#FEFDFD;}
	.st9{fill:#FEFCFC;}
	.st10{fill:#FEFBFB;}
	.st11{fill:#FEF9F9;}
	.st12{fill:#FEF8F8;}
	.st13{fill:#FE0C0B;}
	.st14{fill:#FEF7F7;}
	.st15{fill:#FEF6F6;}
	.st16{fill:#FE9C97;}
	.st17{fill:#FEF0F0;}
	.st18{fill:#FEEDED;}
	.st19{fill:#FEEAEA;}
	.st20{fill:#FEF4F4;}
	.st21{fill:#FE1B1A;}
	.st22{fill:#FEE4E4;}
	.st23{fill:#FE1D1C;}
	.st24{fill:#FEF2F1;}
	.st25{fill:#FD8080;}
	.st26{fill:#FE2321;}
	.st27{fill:#FE0303;}
	.st28{fill:#FE2726;}
	.st29{fill:#FEECED;}
	.st30{fill:#FDF1F1;}
	.st31{fill:#FE2D2C;}
	.st32{fill:#FEF9F8;}
	.st33{fill:#FEEAE9;}
	.st34{fill:#FED1CD;}
	.st35{fill:#FE7C7D;}
	.st36{fill:#FE6D67;}
	.st37{fill:#FE4D4B;}
	.st38{fill:#FE0504;}
	.st39{fill:#FE0606;}
	.st40{fill:#FE0909;}
	.st41{fill:#FE1D1D;}
	.st42{fill:#FE0807;}
	.st43{fill:#FE1615;}
	.st44{fill:#FE0E0D;}
	.st45{fill:#FE2E2C;}
	.st46{fill:#FE0A09;}
	.st47{fill:#FE110D;}
	.st48{fill:#FEEBEA;}
	.st49{fill:#FEBEBE;}
	.st50{fill:#FE1E1C;}
	.st51{fill:#FE4945;}
	.st52{fill:#FE0403;}
	.st53{fill:#FEF6F5;}
	.st54{fill:#FE1714;}
	.st55{fill:#FE1E1E;}
	.st56{fill:#FE0B09;}
	.st57{fill:#FE4240;}
	.st58{fill:#FD7E7F;}
	.st59{fill:#FE2720;}
	.st60{fill:#FE0E0C;}
	.st61{fill:#FEF2F2;}
	.st62{fill:#FEEFEE;}
	.st63{fill:#FE2524;}
	.st64{fill:#FE4E4B;}
	.st65{fill:#FE0302;}
	.st66{fill:#FE413F;}
	.st67{fill:#FE261D;}
	.st68{fill:#FEB8B5;}
	.st69{fill:#FEECEB;}
	.st70{fill:#FE4D49;}
	.st71{fill:#FE5958;}
	.st72{fill:#FE2220;}
	.st73{fill:#FE3736;}
	.st74{fill:#FE7270;}
	.st75{fill:#FE2423;}
	.st76{fill:#FEDEDD;}
	.st77{fill:#FE1E1D;}
	.st78{fill:#FE100F;}
	.st79{fill:#FE3231;}
	.st80{fill:#FE1211;}
	.st81{fill:#FE1F1C;}
	.st82{fill:#FE2823;}
	.st83{fill:#FE2020;}
	.st84{fill:#FEC9C7;}
	.st85{fill:#FEE9E9;}
	.st86{fill:#FE201B;}
	.st87{fill:#FE241F;}
	.st88{fill:#FEE6E4;}
	.st89{fill:#FE2B26;}
	.st90{fill:#FE1B14;}
	.st91{fill:#FED0CF;}
	.st92{fill:#FE2221;}
	.st93{fill:#FEE8E7;}
	.st94{fill:#FE211A;}
	.st95{fill:#FE1610;}
	.st96{fill:#FE3D35;}
	.st97{fill:#FE1715;}
	.st98{fill:#FE514D;}
	.st99{fill:#FD1C19;}
	.st100{fill:#FE3F3D;}
	.st101{fill:#FE1F1B;}
	.st102{fill:#FE110F;}
	.st103{fill:#FE2925;}
	.st104{fill:#FE3E3B;}
	.st105{fill:#FE120F;}
	.st106{fill:#FE1F16;}
	.st107{fill:#FE3B34;}
	.st108{fill:#FE0402;}
	.st109{fill:#FE3730;}
	.st110{fill:#FE7874;}
	.st111{fill:#FD130E;}
	.st112{fill:#FE0F0E;}
	.st113{fill:#FEF5F5;}
	.st114{fill:#FE1918;}
	.st115{fill:#FE1A19;}
	.st116{fill:#FE1816;}
	.st117{fill:#FED7D6;}
	.st118{fill:#FE1C1B;}
	.st119{fill:#FE2523;}
	.st120{fill:#FE3D3C;}
	.st121{fill:#FEDDDD;}
	.st122{fill:#FEA8A5;}
	.st123{fill:#FE2625;}
	.st124{fill:#FD3632;}
	.st125{fill:#FE3C3B;}
	.st126{fill:#FE2F2E;}
	.st127{fill:#FE847C;}
	.st128{fill:#FE605E;}
	.st129{fill:#FD322F;}
	.st130{fill:#FE3A39;}
	.st131{fill:#FD1919;}
	.st132{fill:#FE1311;}
	.st133{fill:#FDC1BF;}
	.st134{fill:#FE0605;}
	.st135{fill:#FEE6E5;}
	.st136{fill:#FE3530;}
	.st137{fill:#FE3F3E;}
	.st138{fill:#FEBEBC;}
	.st139{fill:#FE2322;}
	.st140{fill:#FE5D51;}
	.st141{fill:#FE4539;}
	.st142{fill:#FEE5E5;}
	.st143{fill:#FEF0EF;}
	.st144{fill:#FE0B0A;}
	.st145{fill:#FEDBDA;}
	.st146{fill:#FEBDBC;}
	.st147{fill:#FEF3F2;}
	.st148{fill:#FEF1F1;}
	.st149{fill:#FEDFDE;}
	.st150{fill:#FE8987;}
	.st151{fill:#FEBBB9;}
	.st152{fill:#FE5551;}
	.st153{fill:#FE504E;}
	.st154{fill:#FE5854;}
	.st155{fill:#FEC4C5;}
	.st156{fill:#FE827E;}
	.st157{fill:#FEE8E8;}
	.st158{fill:#FEEEEE;}
	.st159{fill:#FED9D8;}
	.st160{fill:#FEA7A3;}
	.st161{fill:#FECAC9;}
	.st162{fill:#FD7773;}
	.st163{fill:#FECCCC;}
	.st164{fill:#FE8885;}
	.st165{fill:#FD655E;}
	.st166{fill:#FE4440;}
	.st167{fill:#FEE9E8;}
	.st168{fill:#FE1614;}
	.st169{fill:#FEEFEF;}
	.st170{fill:#FEEEF0;}
	.st171{fill:#FEA39F;}
	.st172{fill:#FEBDBE;}
	.st173{fill:#FE2928;}
	.st174{fill:#FD7979;}
	.st175{fill:#FEF1F0;}
	.st176{fill:#FE4241;}
	.st177{fill:#FD7172;}
	.st178{fill:#FED1CE;}
	.st179{fill:#FED9D7;}
	.st180{fill:#FED6D6;}
	.st181{fill:#FDC8C7;}
	.st182{fill:#FE9390;}
	.st183{fill:#FE5950;}
	.st184{fill:#FDA8AA;}
	.st185{fill:#FEDADB;}
	.st186{fill:#FE2F2D;}
	.st187{fill:#FD8986;}
	.st188{fill:#FE1413;}
	.st189{fill:#FE3633;}
	.st190{fill:#FEC0BD;}
	.st191{fill:#FE2A29;}
	.st192{fill:#FEE2E2;}
	.st193{fill:#FE4645;}
	.st194{fill:#FECBC9;}
	.st195{fill:#FEFAF9;}
	.st196{fill:#FEC6C5;}
	.st197{fill:#FEDBD9;}
	.st198{fill:#FEB9B7;}
	.st199{fill:#FE645C;}
	.st200{fill:#FEBEBD;}
	.st201{fill:#FECECD;}
	.st202{fill:#FE9691;}
	.st203{fill:#FE140F;}
	.st204{fill:#FD8A83;}
	.st205{fill:#FE5651;}
	.st206{fill:#FE918B;}
	.st207{fill:#FEB7B5;}
	.st208{fill:#FEB5B2;}
	.st209{fill:#FE3430;}
	.st210{fill:#FE312E;}
	.st211{fill:#FE1E1B;}
	.st212{fill:#FECAC7;}
	.st213{fill:#FE1D1B;}
	.st214{fill:#FEE4E3;}
	.st215{fill:#FE1110;}
	.st216{fill:#FE6968;}
	.st217{fill:#FE1817;}
	.st218{fill:#FE0F0D;}
	.st219{fill:#FE211F;}
	.st220{fill:#FE2E29;}
	.st221{fill:#FEE1E0;}
	.st222{fill:#FDD1D2;}
	.st223{fill:#FDCACA;}
	.st224{fill:#FDCBCA;}
	.st225{fill:#FDB5B3;}
	.st226{fill:#FE3E2F;}
	.st227{fill:#FE120C;}
	.st228{fill:#FE8280;}
	.st229{fill:#FD3D3D;}
	.st230{fill:#FE0706;}
	.st231{fill:#FD1918;}
	.st232{fill:#FEBEBF;}
	.st233{fill:#FE7670;}
	.st234{fill:#FDDDDC;}
	.st235{fill:#FE948F;}
	.st236{fill:#FE6760;}
	.st237{fill:#FE534E;}
	.st238{fill:#FE7B76;}
	.st239{fill:#FE6E64;}
	.st240{fill:#FE4342;}
	.st241{fill:#FE3733;}
	.st242{fill:#FD797B;}
	.st243{fill:#FDCECB;}
	.st244{fill:#FEAAA6;}
	.st245{fill:#FE3C35;}
	.st246{fill:#FE5C52;}
	.st247{fill:#FEA7A2;}
	.st248{fill:#FD6D62;}
	.st249{fill:#FEA6A2;}
</style>
<path class="st0" d="M12.8,156.8c-0.1-0.1-0.3,0-0.3-0.3c0-0.1,0.1-0.2,0.2-0.3c0.2-0.1,0.3,0,0.3,0.2S12.9,156.8,12.8,156.8z"/>
<g>
	<g class="st1">
		<path class="st2" d="M135.1,40.1l-1.3-0.2c-1.2,0-2.2,0.4-3,1.2c-0.9,0.8-1.3,1.7-1.3,2.8c0,0.9,0.3,1.6,0.8,2.3l4,4.5
			c1.2,1.3,1.8,2.8,1.8,4.6c0,1.8-0.7,3.4-2,4.8c-1.3,1.4-3,2.1-4.8,2.1c-0.6,0-1.3-0.1-2.2-0.4v-3c0.7,0.2,1.2,0.3,1.7,0.4
			c1.1,0,2.1-0.4,2.9-1.2c0.8-0.8,1.2-1.8,1.2-2.9c0-0.8-0.3-1.5-0.8-2.1l-4.1-4.7c-1-1.1-1.5-2.5-1.5-4.3c0-2,0.6-3.7,1.9-5
			c1.3-1.4,2.8-2.1,4.7-2.1c0.5,0,0.8,0,0.9,0.1c0.2,0,0.3,0.1,0.5,0.1c0.2,0,0.4,0.1,0.7,0.2V40.1z"/>
		<path class="st2" d="M144.8,57l-1.7-2l6.9-5.6c-1-1.2-2.3-1.8-3.7-1.8c-1.6,0-3,0.6-4.2,1.7c-1.2,1.2-1.8,2.5-1.8,4
			c0,1.5,0.6,2.8,1.7,4c1.2,1.2,2.5,1.7,3.9,1.7c1.8,0,3.5-1,5-3l2.4,1.5c-0.6,1-1.4,1.9-2.5,2.8c-1,0.9-2.7,1.3-4.9,1.3
			c-2.4,0-4.5-0.8-6.1-2.3c-1.6-1.6-2.4-3.6-2.4-6c0-2.5,0.8-4.5,2.4-6.2c1.6-1.6,3.6-2.5,6-2.5c1.8,0,3.2,0.3,4.3,1
			c1.1,0.7,1.8,1.3,2.2,1.8s0.8,1.3,1.4,2.3L144.8,57z"/>
		<path class="st2" d="M163.9,61.8c-2.6,0-4.7-0.8-6.3-2.4s-2.5-3.6-2.5-6c0-2.4,0.9-4.5,2.5-6.2c0.9-0.9,1.8-1.5,2.8-1.9
			s2.2-0.6,3.4-0.6c2.4,0,4.4,0.8,6.1,2.5c1.6,1.7,2.4,3.8,2.4,6.4v6.5c0,2.7-0.9,4.9-2.7,6.5c-1.8,1.7-4.1,2.5-7,2.5
			c-1,0-2.2-0.2-3.8-0.7v-2.9c1.5,0.5,2.6,0.8,3.5,0.8c2.2,0,3.9-0.6,5.1-1.7c1.2-1.1,1.8-2.6,1.8-4.5v-6.4c0-1.8-0.5-3.3-1.6-4.4
			c-1.1-1.1-2.4-1.7-4-1.7c-1.5,0-2.9,0.5-3.9,1.6c-1.1,1.1-1.6,2.4-1.6,4c0,1.7,0.6,3.1,1.7,4.2c1.1,1.1,2.6,1.6,4.5,1.6
			c0.6,0,1.2-0.1,1.6-0.2c0.5-0.1,1.2-0.4,2.1-0.9v3C166.3,61.6,165,61.8,163.9,61.8z"/>
		<path class="st2" d="M181.8,57l-1.7-2l6.9-5.6c-1-1.2-2.3-1.8-3.7-1.8c-1.6,0-3,0.6-4.2,1.7c-1.2,1.2-1.8,2.5-1.8,4
			c0,1.5,0.6,2.8,1.7,4c1.2,1.2,2.5,1.7,3.9,1.7c1.8,0,3.5-1,5-3l2.4,1.5c-0.6,1-1.4,1.9-2.5,2.8c-1,0.9-2.7,1.3-4.9,1.3
			c-2.4,0-4.5-0.8-6.1-2.3c-1.6-1.6-2.4-3.6-2.4-6c0-2.5,0.8-4.5,2.4-6.2c1.6-1.6,3.6-2.5,6-2.5c1.8,0,3.2,0.3,4.3,1
			c1.1,0.7,1.8,1.3,2.2,1.8s0.8,1.3,1.4,2.3L181.8,57z"/>
		<path class="st2" d="M192.8,37h3v24.5h-3V37z"/>
		<path class="st2" d="M198.2,49.9h9v3.2h-9V49.9z"/>
		<path class="st2" d="M221,39.8l-1.1,0.1c-0.2,0-0.5,0.1-0.7,0.1c-0.2,0-0.6,0.1-1,0.3c-0.8,0.2-2,1-3.6,2.5
			c-1.6,1.5-2.4,3.8-2.4,6.8c0,2.9,0.6,4.9,1.9,5.9c0.6,0.5,1.1,0.9,1.7,1.2c0.4,0.3,0.8,0.5,1.2,0.8c0.6,0.3,1.2,0.6,1.7,0.8
			c0.5,0.2,1.3,0.4,2.3,0.7v2.9l-2.1-0.2c-1-0.2-1.9-0.5-2.8-0.9c-0.9-0.4-1.9-1.1-3.1-2c-1.1-0.9-2.1-2.2-2.9-4
			c-0.8-1.7-1.2-3.5-1.2-5.4c0-1.9,0.4-3.7,1.2-5.4c0.8-1.7,1.8-3,3.1-4.1c1.2-1,2.3-1.7,3.3-2.1c1-0.4,1.7-0.7,2.2-0.8l2.3-0.3
			V39.8z"/>
		<path class="st2" d="M223.2,37h3v24.5h-3V37z"/>
		<path class="st2" d="M244.5,54.3c0,2.2-0.7,4.1-2.1,5.4c-1.4,1.4-3.3,2.1-5.6,2.1c-2.3,0-4.2-0.7-5.6-2c-1.4-1.4-2.1-3.2-2.1-5.5
			v-9.2h3v9.2c0,1.4,0.4,2.6,1.3,3.5c0.9,0.9,2,1.3,3.4,1.3c1.4,0,2.5-0.4,3.4-1.3c0.9-0.9,1.3-2,1.3-3.5v-9.2h3V54.3z"/>
		<path class="st2" d="M255.8,44.8c2.6,0,4.7,0.8,6.3,2.3c1.7,1.6,2.5,3.6,2.5,6.2c0,2.5-0.8,4.5-2.4,6.1c-1.6,1.6-3.7,2.4-6.2,2.4
			c-2.5,0-4.6-0.8-6.1-2.5c-1.6-1.6-2.3-3.8-2.3-6.5V37h3v15.7c0,1.7,0.5,3.2,1.6,4.4c1.1,1.2,2.4,1.8,4,1.8c1.6,0,2.9-0.5,4-1.6
			c1.1-1.1,1.6-2.4,1.6-3.9c0-1.6-0.6-3-1.8-4.1s-2.7-1.6-4.5-1.6c-0.7,0-1.2,0.1-1.6,0.2l-1.7,0.6v-3.1l1.9-0.5L255.8,44.8z"/>
		<path class="st2" d="M284.7,40.1l-1.3-0.2c-1.2,0-2.2,0.4-3,1.2c-0.9,0.8-1.3,1.7-1.3,2.8c0,0.9,0.3,1.6,0.8,2.3l4,4.5
			c1.2,1.3,1.8,2.8,1.8,4.6c0,1.8-0.7,3.4-2,4.8c-1.3,1.4-3,2.1-4.8,2.1c-0.6,0-1.3-0.1-2.2-0.4v-3c0.7,0.2,1.2,0.3,1.7,0.4
			c1.1,0,2.1-0.4,2.9-1.2c0.8-0.8,1.2-1.8,1.2-2.9c0-0.8-0.3-1.5-0.8-2.1l-4.1-4.7c-1-1.1-1.5-2.5-1.5-4.3c0-2,0.6-3.7,1.9-5
			c1.3-1.4,2.8-2.1,4.7-2.1c0.5,0,0.8,0,0.9,0.1s0.3,0.1,0.5,0.1c0.2,0,0.4,0.1,0.7,0.2V40.1z"/>
		<path class="st2" d="M295.9,61.8c-2.5,0-4.6-0.8-6.3-2.4s-2.5-3.6-2.5-6.1c0-2.4,0.8-4.5,2.5-6.2s3.8-2.5,6.2-2.5
			c2.5,0,4.6,0.8,6.2,2.5c0.8,0.9,1.3,1.8,1.7,3c0.4,1.1,0.6,2.4,0.6,3.8v7.6h-3V54c0-1.9-0.5-3.5-1.6-4.7s-2.4-1.9-4.1-1.9
			c-1.5,0-2.8,0.6-3.9,1.7c-1.1,1.1-1.7,2.5-1.7,4.1c0,1.6,0.6,3,1.7,4.1c1.2,1.1,2.6,1.7,4.4,1.7c0.7,0,1.2-0.1,1.6-0.2
			c0.4-0.1,1-0.4,1.8-0.9v3l-2.1,0.6c-0.3,0.1-0.6,0.1-0.8,0.1C296.6,61.8,296.3,61.8,295.9,61.8z"/>
		<path class="st2" d="M307.3,37h3v24.5h-3V37z"/>
		<path class="st2" d="M314,61.6c-1.1,0-1.7-0.4-1.7-1.3c0-0.2,0-0.4,0.1-0.5c0.1-0.2,0.4-0.6,0.8-1.2l8.5-10.6h-8.7v-2.7h11.4
			c0.5,0,0.9,0.1,1.2,0.4c0.3,0.3,0.5,0.6,0.5,1c0,0.5-0.3,1-0.7,1.6l-8.8,10.7h8.7v2.7H314z"/>
		<path class="st2" d="M336.5,61.8c-2.6,0-4.7-0.8-6.3-2.4s-2.5-3.6-2.5-6c0-2.4,0.9-4.5,2.5-6.2c0.9-0.9,1.8-1.5,2.8-1.9
			c1-0.4,2.2-0.6,3.4-0.6c2.4,0,4.4,0.8,6.1,2.5c1.6,1.7,2.4,3.8,2.4,6.4v6.5c0,2.7-0.9,4.9-2.7,6.5s-4.1,2.5-7,2.5
			c-1,0-2.2-0.2-3.8-0.7v-2.9c1.5,0.5,2.6,0.8,3.5,0.8c2.2,0,3.9-0.6,5.1-1.7c1.2-1.1,1.8-2.6,1.8-4.5v-6.4c0-1.8-0.5-3.3-1.6-4.4
			c-1.1-1.1-2.4-1.7-4-1.7c-1.5,0-2.9,0.5-3.9,1.6c-1.1,1.1-1.6,2.4-1.6,4c0,1.7,0.6,3.1,1.7,4.2c1.1,1.1,2.6,1.6,4.5,1.6
			c0.6,0,1.2-0.1,1.6-0.2c0.5-0.1,1.2-0.4,2.1-0.9v3C338.9,61.6,337.5,61.8,336.5,61.8z"/>
		<path class="st2" d="M349.4,36.7c0.6,0,1.1,0.2,1.5,0.6s0.6,1,0.6,1.6c0,0.6-0.2,1.1-0.6,1.6s-0.9,0.6-1.5,0.6
			c-0.6,0-1.1-0.2-1.6-0.6s-0.6-1-0.6-1.6c0-0.6,0.2-1.1,0.6-1.6S348.7,36.7,349.4,36.7z M347.9,45.1h3v16.4h-3V45.1z"/>
	</g>
	<g class="st1">
		<path class="st2" d="M359,61.8c-1.3,0-2.5-0.6-3.6-1.8c-1.1-1.2-1.6-2.5-1.6-4V40.2h3v5h3.4v2.7h-3.4v8.2c0,0.9,0.3,1.6,0.8,2.2
			c0.6,0.6,1.3,0.8,2.1,0.8c0.3,0,0.5,0,0.5,0v2.6L359,61.8z"/>
		<path class="st2" d="M366.7,61.8c-1.3,0-2.5-0.6-3.6-1.8c-1.1-1.2-1.6-2.5-1.6-4V40.2h3v5h3.4v2.7h-3.4v8.2c0,0.9,0.3,1.6,0.8,2.2
			c0.6,0.6,1.3,0.8,2.1,0.8c0.3,0,0.5,0,0.5,0v2.6L366.7,61.8z"/>
	</g>
	<g class="st1">
		<path class="st2" d="M375.7,57l-1.7-2l6.9-5.6c-1-1.2-2.3-1.8-3.7-1.8c-1.6,0-3,0.6-4.2,1.7c-1.2,1.2-1.8,2.5-1.8,4
			c0,1.5,0.6,2.8,1.7,4c1.2,1.2,2.5,1.7,3.9,1.7c1.8,0,3.5-1,5-3l2.4,1.5c-0.6,1-1.4,1.9-2.5,2.8c-1,0.9-2.7,1.3-4.9,1.3
			c-2.4,0-4.5-0.8-6.1-2.3c-1.6-1.6-2.4-3.6-2.4-6c0-2.5,0.8-4.5,2.4-6.2c1.6-1.6,3.6-2.5,6-2.5c1.8,0,3.2,0.3,4.3,1
			c1.1,0.7,1.8,1.3,2.2,1.8s0.8,1.3,1.4,2.3L375.7,57z"/>
		<path class="st2" d="M386.7,51c0-1.7,0.6-3.1,1.8-4.3c1.2-1.2,2.6-1.8,4.3-1.8h0.8v2.7H393c-1,0-1.8,0.3-2.4,1
			c-0.3,0.3-0.6,0.7-0.7,1.1c-0.2,0.4-0.2,0.9-0.2,1.5v10.4h-3V51z"/>
		<path class="st2" d="M411.2,57l-1.7-2l6.9-5.6c-1-1.2-2.3-1.8-3.7-1.8c-1.6,0-3,0.6-4.2,1.7s-1.8,2.5-1.8,4c0,1.5,0.6,2.8,1.7,4
			c1.2,1.2,2.5,1.7,3.9,1.7c1.8,0,3.5-1,5-3l2.4,1.5c-0.6,1-1.4,1.9-2.5,2.8c-1,0.9-2.7,1.3-4.9,1.3c-2.4,0-4.5-0.8-6.1-2.3
			s-2.4-3.6-2.4-6c0-2.5,0.8-4.5,2.4-6.2c1.6-1.6,3.6-2.5,6-2.5c1.8,0,3.2,0.3,4.3,1c1.1,0.7,1.8,1.3,2.2,1.8s0.8,1.3,1.4,2.3
			L411.2,57z"/>
		<path class="st2" d="M423.9,57.6c0.6,0,1.1,0.2,1.6,0.6s0.6,0.9,0.6,1.6s-0.2,1.1-0.6,1.6c-0.4,0.4-1,0.6-1.6,0.6
			c-0.6,0-1.1-0.2-1.6-0.6c-0.4-0.4-0.6-0.9-0.6-1.6s0.2-1.1,0.6-1.6S423.3,57.6,423.9,57.6z"/>
		<path class="st2" d="M439.9,37.1l3.8,20.8c0.1,0.5,0.3,0.8,0.7,1.1c0.4,0.3,0.8,0.4,1.4,0.4c1,0,1.6-0.6,1.9-1.8l4.1-20.6l3.2,0
			l-4.5,22.1c-0.2,0.9-0.6,1.6-1.3,2c-0.7,0.4-1.7,0.6-3.1,0.6c-3.1,0-4.9-0.9-5.2-2.8l-4.2-22L439.9,37.1z"/>
		<path class="st2" d="M457.8,57.6c0.6,0,1.1,0.2,1.6,0.6s0.6,0.9,0.6,1.6s-0.2,1.1-0.6,1.6c-0.4,0.4-1,0.6-1.6,0.6
			c-0.6,0-1.1-0.2-1.6-0.6c-0.4-0.4-0.6-0.9-0.6-1.6s0.2-1.1,0.6-1.6S457.2,57.6,457.8,57.6z"/>
	</g>
	<path class="st3" d="M110.9,49.7L6.3,83.9V16.5c0-0.4,0-0.4,0.4-0.3l42.3,13.6l52.4,16.9L110.9,49.7z"/>
	<path class="st4" d="M14.2,78.8l2.2-3.2c2.7-3.9,5.3-7.8,8-11.7c0.1-0.2,0.3-0.3,0.5-0.2c2.4,0.5,4.8,0.5,7.2-0.2
		c4.6-1.3,8.2-4.8,9.7-9.3c0-0.1,0.1-0.2,0.1-0.3c0.1-0.5,0.1-0.5,0.7-0.5l48.9,0.1c0.1,0,0.2,0,0.3,0.1L14.2,78.8L14.2,78.8z"/>
	<path class="st4" d="M13.9,21.1l78.4,25.2v0h-0.2l-49.8-0.1c-0.2,0-0.3-0.1-0.4-0.3c-0.7-2.5-2.1-4.8-4-6.5
		c-1.6-1.4-3.4-2.5-5.5-3.2c-2-0.6-4.1-0.8-6.2-0.6c-0.7,0.1-1.4,0.3-2.1,0.5c-0.2,0.1-0.4,0-0.5-0.2l-9.5-14.5L13.9,21.1z"/>
	<path class="st4" d="M8.7,80.6c0-0.8,0-1.5,0-2.2c0-0.1,0.1-0.2,0.2-0.3l12.5-18.2c0.1-0.2,0.1-0.3-0.1-0.5c-1.7-1.2-3.1-2.8-4-4.6
		c-0.8-1.7-1.2-3.6-1.1-5.4c0.1-3.1,1.5-6.1,3.9-8.2c0.2-0.2,0.4-0.3,0.6-0.5c0.2-0.1,0.2-0.2,0.1-0.4c-1.3-1.9-2.5-3.9-3.8-5.8
		L8.8,22c-0.1-0.1-0.2-0.3-0.1-0.5c0-0.6,0-1.3,0-1.9c0-0.2,0-0.3,0.3-0.2l0,0c0.5,0.1,1,0.3,1.4,0.6c0.3,0.3,0.6,0.7,0.8,1.2
		c3.8,5.9,7.7,11.8,11.5,17.7c0.2,0.3,0.3,0.3,0.6,0.2c1.7-0.8,3.6-1.1,5.5-1c3.7,0.2,7.1,2.1,9.2,5.2c1.1,1.5,1.8,3.3,2,5.1
		c0,0.2,0.1,0.3,0.3,0.2h58.7c0.4,0,0.8,0.1,1.2,0.2c1,0.3,2,0.6,2.9,1l0.3,0.1L99.5,51c-0.2,0-0.4,0-0.6,0H40.4
		c-0.4,0-0.4,0-0.5,0.4c-0.6,4.1-3.3,7.6-7.2,9.2c-2.8,1.2-5.9,1.3-8.7,0.2c-0.2-0.1-0.3,0-0.4,0.1c0,0,0,0,0,0
		c-4.3,6.3-8.5,12.5-12.8,18.7c-0.1,0.2-0.4,0.4-0.6,0.5C9.6,80.3,9.1,80.5,8.7,80.6z"/>
	<path class="st4" d="M8.7,74.1v-48c0.1,0.2,0.2,0.3,0.3,0.4c2.8,4.4,5.7,8.7,8.5,13.1c0.2,0.2,0.1,0.4,0,0.6c0,0,0,0,0,0
		c-1.9,2-3.2,4.6-3.6,7.4c-0.7,4.5,0.8,9,4,12.2c0.4,0.4,0.4,0.4,0.1,0.8L8.9,73.8C8.8,73.9,8.8,74,8.7,74.1z"/>
	<path class="st5" d="M28.4,41.8H35c0.2,0,0.3,0,0.3,0.3c0,3.3,0,6.6,0,9.9c0,0.6-0.1,1.1-0.3,1.7c-0.2,0.8-0.6,1.5-1,2.1
		c-0.4,0.7-1,1.3-1.7,1.7c-0.4,0.3-0.9,0.6-1.4,0.8c-0.6,0.3-1.2,0.4-1.8,0.5c-1,0.1-2,0-3-0.3c-0.7-0.2-1.4-0.6-2-1
		c-0.4-0.3-0.8-0.7-1.2-1.1c-0.3-0.3-0.5-0.6-0.7-1c-0.6-0.9-0.9-1.8-1-2.9c0-3.5,0-7,0-10.4c0-0.3,0.1-0.3,0.3-0.3L28.4,41.8z"/>
	<path class="st4" d="M25.6,52c-0.4,0-0.5,0.1-0.5,0.5c0,0.1,0,0.3,0,0.4c0,0.7,0,0.7-0.7,0.6c-0.1,0-0.2-0.1-0.2-0.2s0-0.3,0-0.5
		s0-0.3-0.2-0.2s-0.6-0.1-0.8,0s-0.1,0.5-0.1,0.7s0,0.2-0.2,0.2c-0.6,0-0.6,0-0.6-0.6c0-0.3-0.1-0.4-0.4-0.4s-0.5,0-0.5-0.4
		s0-0.7,0-1c0-2.8,0-5.7,0-8.5c0-0.3,0.1-0.3,0.3-0.3h12.7c0.3,0,0.3,0.1,0.3,0.3c0,2.5,0,5,0,7.5c0,0.7,0,1.4,0,2.1
		c0,0.3-0.1,0.3-0.3,0.3c-0.5,0-0.5,0-0.5,0.5c0,0.1,0,0.1,0,0.2c0,0.2,0,0.2-0.2,0.2c-0.6,0-0.6,0-0.6-0.6c0-0.3-0.1-0.4-0.4-0.4
		c-0.7,0-0.7,0-0.7,0.7c0,0.2-0.1,0.3-0.3,0.3c-0.6,0-0.6,0-0.6-0.6c0-0.2,0-0.3,0-0.5c0.1-0.3-0.2-0.3-0.4-0.4
		c-0.2-0.1-0.4-0.2-0.6-0.3c-0.1,0-0.1-0.1-0.2-0.1c-0.2-0.2-0.2-0.3,0.1-0.4h0.1c0.1,0,0.2,0,0.2-0.1s-0.2-0.1-0.2-0.1
		c-0.3,0-0.5-0.2-0.5-0.5c0-0.1,0-0.2,0.1-0.3c-0.1,0.1-0.3,0.1-0.4,0.1c-0.9,0-1.8,0-2.7,0c-0.2,0-0.3,0-0.3,0.3s0,0.4-0.5,0.5
		C26,50.9,26,51,26,51.1s0.3,0,0.4,0.1s0.1,0.2,0,0.3C26.2,51.7,25.9,51.9,25.6,52L25.6,52z"/>
	<path class="st4" d="M26.1,52.4h4.5c0.2,0,0.2,0.1,0.2,0.2c0,1.1,0,2.3,0,3.4c0,0.1,0,0.1,0,0.2c0,0.2-0.1,0.3-0.3,0.2
		c0,0-0.1,0-0.1,0c-0.2-0.1-0.4-0.3-0.6-0.5c-0.4-0.3-0.8-0.7-1.2-1c-0.1-0.1-0.2-0.1-0.3,0c-0.6,0.5-1.2,1-1.8,1.6
		c-0.2,0.2-0.3,0.2-0.4-0.1v-0.5c0-0.1,0-0.2,0-0.3c0.1-0.1,0.1,0,0.2,0s-0.1,0-0.1-0.1s0-0.1,0-0.2s0.2,0,0.3,0.1
		c0.1,0.1,0.3,0.1,0.4,0c0.2-0.1,0.3-0.2,0.4-0.3c0,0,0,0,0.1-0.1l0.1-0.1c0.1,0,0.2-0.1,0.3-0.2c0,0,0,0,0-0.1
		c0.1-0.1,0.1-0.1,0.2-0.2c0,0,0,0,0.1,0l0.2-0.2c0.2-0.1,0.3,0,0.4,0c0.1,0,0.1,0.1,0.2,0.1c0,0.1,0.1,0.1,0.2,0.2l0,0l0,0.1
		c0,0.1,0.1,0.1,0.2,0.2c0.1,0,0.2,0.1,0.2,0.1c0.1,0.1,0.2,0.2,0.3,0.3c0.2,0.1,0.3,0.1,0.5,0c0,0,0.1-0.1,0.1-0.1
		c0.1-0.2,0.2-0.4,0-0.5s-0.3,0-0.5-0.1c0.5,0.3,0.5,0.4,0.3,0.7c-0.1,0-0.1,0-0.2,0c-0.1-0.1-0.2-0.2-0.4-0.2
		c-0.1,0-0.1-0.1-0.2-0.2c-0.2-0.2-0.4-0.3-0.6-0.5c-0.3-0.3-0.3-0.4,0.1-0.6c0,0,0.1,0,0.1,0l0,0c0,0,0.2,0.3,0.4,0.3
		s0.3-0.2,0.4-0.3l0.1-0.1c0.4-0.3,0.4-0.5-0.1-0.8c-0.1-0.1-0.2-0.1-0.3,0c-0.2,0.1-0.4,0.3-0.6,0.5c-0.1,0.1-0.3,0.2-0.4,0.3
		c-0.1,0.2-0.4,0.2-0.5,0c0,0,0,0,0,0c-0.1-0.1-0.3-0.3-0.4-0.4s-0.4-0.5-0.8-0.5c-0.2,0.1-0.4,0.3-0.5,0.5c-0.1,0-0.1,0-0.2,0
		c-0.1-0.1-0.1-0.3-0.1-0.4c0-0.3-0.1,0.1-0.1,0C26,52.7,26,52.5,26.1,52.4z"/>
	<path class="st6" d="M27.9,58c-0.2-0.2-0.4-0.2-0.6-0.3c-0.3-0.2-0.6-0.4-0.8-0.6c-0.3-0.3-0.3-0.5,0-0.7s0.3-0.3,0.5-0.4
		s0.2-0.2,0.4-0.1s0,0.1,0,0.2s-0.2,0.2,0,0.4c0.1,0.1,0.2,0.1,0.3,0c0,0,0,0,0,0c0.2-0.1,0.3,0,0.4,0.1s0.1,0.3,0,0.4
		s-0.2,0.2-0.3,0.4s-0.1,0.1,0,0.2s0.1,0,0.2,0c0.1-0.1,0.2-0.2,0.3-0.3c0.2-0.2,0.3-0.2,0.6,0c0.1,0.1,0.3,0.3,0.4,0.3
		c0,0,0.1,0.1,0.2,0s0-0.1,0-0.2c-0.1-0.2-0.3-0.3-0.5-0.4c-0.2-0.2-0.2-0.3,0-0.5c0.1-0.1,0.3-0.2,0.4-0.1c0,0,0,0,0.1,0.1
		c0.1,0.1,0.3,0.2,0.4,0.1s0-0.3-0.1-0.4c-0.2-0.2-0.4-0.4-0.6-0.5c-0.1-0.1-0.3,0-0.3,0.3c0,0,0,0.1,0,0.1c0.1,0.2,0,0.4-0.2,0.5
		c0,0,0,0,0,0c-0.2,0.1-0.3,0-0.4-0.2s0-0.3,0.1-0.4s0-0.2-0.1-0.3s-0.2-0.2-0.3,0s-0.2,0.1-0.3,0.2s-0.1,0.1-0.2,0s0-0.2,0.1-0.3
		c0.3-0.2,0.5-0.5,0.8-0.7c0.1-0.1,0.2-0.1,0.3,0c0.4,0.3,0.8,0.6,1.2,0.9c0.2,0.2,0.4,0.4,0.6,0.5c0.2,0.2,0.3,0.4,0,0.6
		c0,0,0,0.1-0.1,0.2l0,0c-0.2,0.1-0.4,0.2-0.4,0.4l0,0c-0.3,0.1-0.6,0.3-0.9,0.4c-0.1,0.1-0.1,0.1-0.2,0.1
		C28.5,58.1,28.2,58.1,27.9,58z"/>
	<path class="st7" d="M24.7,56.3c-0.2,0-0.3,0-0.5,0c-0.3,0-0.4-0.1-0.4-0.4c0-0.5,0-0.5,0.5-0.5s0.7,0,1.1,0c0.2,0,0.2,0,0.2,0.2
		c0,0.6,0,0.6-0.6,0.6H24.7z"/>
	<path class="st8" d="M31.9,55.4c-0.2,0-0.5,0-0.7,0s-0.2-0.1-0.2-0.3c0-0.6,0-0.6,0.5-0.6c0.4,0,0.7,0,1.1,0c0.2,0,0.2,0.1,0.2,0.2
		c0,0.6,0,0.6-0.6,0.6L31.9,55.4z"/>
	<path class="st9" d="M23.8,54.6h0.3c0.6,0,0.6,0.1,0.5,0.7c0,0.1-0.1,0.1-0.2,0.1c-0.5,0-1,0-1.5,0c-0.1,0-0.2,0-0.2-0.2
		c0-0.6-0.1-0.6,0.5-0.6H23.8z"/>
	<path class="st10" d="M32.7,56.3h-0.1c-0.6,0-0.6,0-0.6-0.6c0-0.2,0-0.2,0.2-0.2c0.4,0,0.9,0,1.3,0c0.3,0,0.3,0.2,0.2,0.4
		c-0.1,0.3-0.4,0.5-0.8,0.4C32.9,56.3,32.8,56.3,32.7,56.3z"/>
	<path class="st10" d="M32.9,53.6c0.2,0,0.3,0,0.5,0c0.3,0,0.4,0.1,0.4,0.4s-0.1,0.4-0.4,0.4c-0.4,0-0.7,0-1.1,0
		c-0.2,0-0.2,0-0.2-0.2c0-0.6,0-0.6,0.5-0.6L32.9,53.6z"/>
	<path class="st8" d="M22.7,53.6h0.8c0.1,0,0.2,0,0.2,0.2c0,0.6,0,0.6-0.5,0.6h-0.8c-0.3-0.1-0.5-0.4-0.5-0.7c0-0.1,0.1-0.1,0.2-0.1
		H22.7z"/>
	<path class="st11" d="M32,56.4h0.7c0.1,0,0.2,0,0.2,0.2c0,0.3-0.2,0.6-0.5,0.6c-0.3,0-0.7,0-1,0c-0.1,0-0.2,0-0.2-0.1l0,0
		c-0.1-0.6-0.1-0.6,0.5-0.6L32,56.4z"/>
	<path class="st4" d="M24.7,54.4H24c-0.1,0-0.2,0-0.2-0.2c0-0.6,0-0.6,0.5-0.6c0.3,0,0.7,0,1,0c0.2,0,0.2,0.1,0.2,0.2
		c0,0.5,0,0.5-0.5,0.5L24.7,54.4z"/>
	<path class="st8" d="M33.7,54.6h0.6c0.1,0,0.2,0,0.1,0.2c-0.1,0.4-0.4,0.6-0.8,0.6h-0.3c-0.4,0-0.4,0-0.4-0.4s0.1-0.5,0.4-0.4
		C33.4,54.6,33.5,54.6,33.7,54.6z"/>
	<path class="st8" d="M29.9,57.6c0.4-0.2,0.9-0.3,1.3-0.2c0.1,0,0.2-0.1,0.2,0.1s0.1,0.3-0.1,0.4c-0.5,0.3-1.1,0.4-1.6,0.3
		c-0.2,0-0.1-0.2,0-0.4S30,57.7,29.9,57.6L29.9,57.6z"/>
	<path class="st7" d="M26.4,57.1c-0.5,0-1,0-1.5,0c-0.1,0-0.1-0.1-0.1-0.2c-0.1-0.6-0.1-0.6,0.5-0.6c0.2,0,0.4,0,0.6,0
		C26.2,56.6,26.3,56.9,26.4,57.1z"/>
	<path class="st8" d="M29.1,51.2c0.2,0.1,0.4,0.2,0.6,0.4h-2.5l0.2-0.2c0.1-0.1,0.2-0.2,0.4-0.3c0.2-0.1,0.4-0.2,0.6-0.3
		C28.6,50.8,28.9,51,29.1,51.2z"/>
	<path class="st4" d="M27.6,58.2H26c-0.1,0-0.2-0.1-0.2-0.1c0,0,0,0,0-0.1c0-0.2-0.1-0.5,0-0.5c0.2-0.1,0.5-0.1,0.7,0
		c0.1,0,0.1,0.1,0.2,0.2C27,57.8,27.3,57.9,27.6,58.2L27.6,58.2z"/>
	<path class="st11" d="M31.4,56.3h-0.2C31,56.3,31,56.2,31,56c0-0.6,0-0.6,0.6-0.6c0.3,0,0.4,0.1,0.3,0.4c0,0,0,0.1,0,0.1
		c0.1,0.3-0.1,0.4-0.4,0.4L31.4,56.3z"/>
	<path class="st12" d="M23.4,56.4h1.2c0.1,0,0.2,0,0.2,0.2v0.2c0,0.5-0.1,0.6-0.6,0.4C23.8,57,23.6,56.7,23.4,56.4z"/>
	<path class="st10" d="M25.3,55.3c-0.1,0-0.4,0.1-0.4,0c0-0.2,0-0.4,0-0.7c0-0.1,0.1-0.1,0.1-0.1h0.4c0.4,0,0.4,0,0.4,0.4
		S25.9,55.3,25.3,55.3z"/>
	<path class="st13" d="M26.4,57.1c-0.2-0.2-0.4-0.4-0.4-0.7l0.1-0.1c0.1,0.2,0.2,0.2,0.3,0c0.4-0.4,0.8-0.7,1.2-1
		c0.2-0.2,0.4-0.4,0.6-0.6c0-0.1,0.1-0.1,0.2-0.1c0,0,0,0,0.1,0.1l1.3,1.1c0,0,0,0.1-0.1,0.1c-0.3-0.1-0.5-0.3-0.7-0.6
		c-0.6-0.5-0.6-0.5-1.1,0c-0.2,0.2-0.5,0.3-0.5,0.5l0,0c-0.4,0.2-0.7,0.5-1,0.8C26.2,56.9,26.4,57,26.4,57.1L26.4,57.1z"/>
	<path class="st14" d="M22.6,55.4c0.3,0,0.6,0,0.9,0s0.2,0.1,0.2,0.2c0,0.1,0,0.2,0,0.3c0,0.1,0.1,0.3-0.1,0.4s-0.5,0.1-0.6-0.2
		S22.7,55.7,22.6,55.4z"/>
	<path class="st11" d="M31.4,53.6c0.1,0,0.3-0.1,0.4,0.1c0,0.2,0,0.4,0,0.7c0,0.1-0.1,0.1-0.2,0.1c-0.1,0-0.3,0-0.4,0
		c-0.3,0-0.3-0.1-0.3-0.3C30.9,53.6,30.9,53.6,31.4,53.6z"/>
	<path class="st9" d="M27.5,52.2H27c-0.2,0-0.3,0-0.3-0.2s0.1-0.3,0.3-0.2c0.3,0,0.7,0,1,0c0.2,0,0.3,0,0.3,0.2s-0.1,0.3-0.3,0.2
		H27.5z"/>
	<path class="st9" d="M29.2,52.2h-0.5c-0.2,0-0.3,0-0.3-0.2s0.1-0.3,0.3-0.2h1.1c0.2,0,0.2,0.1,0.2,0.2s0,0.3-0.2,0.2H29.2z"/>
	<path class="st12" d="M34.9,53.6c-0.1,0.2-0.2,0.4-0.3,0.6c0,0.1-0.1,0.2-0.2,0.2c-0.2,0-0.4,0.1-0.4,0c0-0.2,0-0.4,0-0.7
		c0-0.1,0.1-0.1,0.2-0.1L34.9,53.6z"/>
	<path class="st4" d="M32.9,53.4c-0.5,0-0.4,0-0.5-0.4s0.2-0.3,0.5-0.4s0.4,0.2,0.4,0.4S33.1,53.5,32.9,53.4z"/>
	<path class="st10" d="M24.2,53c0.1,0.4-0.1,0.4-0.4,0.4s-0.4,0-0.4-0.4s0.1-0.4,0.4-0.4S24.3,52.7,24.2,53z"/>
	<path class="st10" d="M22.3,53c0,0.4,0,0.4-0.4,0.4c-0.2,0-0.2-0.1-0.2-0.2c0-0.1,0-0.1,0-0.2c-0.1-0.4,0.1-0.4,0.4-0.4
		S22.3,52.9,22.3,53z"/>
	<path class="st7" d="M34.3,53.1c0-0.4,0.1-0.5,0.5-0.4h0.1c0,0.2,0,0.5-0.1,0.7c0,0.1-0.3,0.1-0.5,0S34.4,53.2,34.3,53.1z"/>
	<path class="st15" d="M25.3,53c0-0.2-0.1-0.4,0.3-0.4c0.2,0,0.3,0.1,0.2,0.3c0,0.1,0,0.1,0,0.2c0,0.2,0.1,0.3-0.2,0.3
		s-0.3-0.1-0.3-0.3V53z"/>
	<path class="st16" d="M26.1,55.6c-0.1,0.1,0,0.2-0.1,0.3c-0.1-0.1,0-0.3-0.1-0.4v-2.8c0-0.1-0.1-0.2,0.1-0.3c0,0.2-0.1,0.3,0,0.4
		c0,0,0,0,0.1,0c0.1,0.1,0,0.3,0,0.5l0,0c-0.1,0.1-0.1,0.2-0.1,0.3c0,0,0,0.1,0,0.1c0,0.1,0,0.2,0,0.3c0,0,0,0.1,0,0.1
		c0,0.1,0,0.2,0,0.3v0.1c0.1,0.2,0,0.3-0.1,0.4c0,0.1,0,0.2,0,0.3c0,0,0,0.1,0,0.1c0,0-0.1,0.1,0,0.1s0,0,0,0S26.1,55.6,26.1,55.6z"
		/>
	<path class="st8" d="M25.6,58.1l-1.1-0.6v-0.1h1c0.1,0,0.1,0,0.1,0.1S25.6,57.8,25.6,58.1z"/>
	<path class="st17" d="M27.2,51.3c-0.3,0.1-0.6,0.3-0.8,0.5c0,0.1-0.1,0.1-0.2,0.2l0,0c-0.2,0.1-0.5,0.2-0.6,0.3
		c-0.1,0-0.2,0.2-0.3,0s0.1-0.1,0.2-0.2s0.2-0.1,0.2-0.2l0,0c0.3-0.1,0.5-0.3,0.8-0.4l0.8-0.5c0.1,0,0.1,0,0.2,0c0,0,0.1,0,0.1,0.1
		C27.4,51.3,27.3,51.3,27.2,51.3z"/>
	<path class="st12" d="M22.1,54.6L22.1,54.6c0.6,0,0.8,0.2,0.6,0.7c0,0.2-0.2,0.1-0.2,0.1C22.4,55.1,22.2,54.9,22.1,54.6z"/>
	<path class="st14" d="M26.7,58.3h1.7c0.1,0,0.1,0,0.1,0.1s-0.1,0.1-0.1,0.1C27.9,58.6,27.3,58.5,26.7,58.3L26.7,58.3z"/>
	<path class="st18" d="M31.4,52.3c-0.3,0-0.4-0.2-0.7-0.3c-0.5-0.2-0.9-0.5-1.3-0.8c0,0,0,0,0-0.1c0.1,0,0.1,0,0.2,0
		c0.3,0.2,0.6,0.3,0.9,0.5s0.4,0.3,0.7,0.3c0.1,0,0.2,0,0.3,0C31.5,52.1,31.6,52.2,31.4,52.3z"/>
	<path class="st4" d="M31.3,53.1c0,0.1,0,0.2,0,0.3c-0.1,0-0.2,0-0.3,0c-0.1,0-0.1-0.1-0.1-0.2s0-0.2,0-0.3s-0.1-0.3,0.2-0.3
		s0.2,0.1,0.2,0.3L31.3,53.1z"/>
	<path class="st19" d="M30.3,57.2c0.2-0.2,0.4-0.4,0.5-0.6c0-0.1,0-0.1,0.1-0.1s0.1,0.1,0.1,0.2v0.1C31,57.3,31,57.3,30.3,57.2z"/>
	<path class="st20" d="M30,58.3c-0.1,0.2-0.3,0.1-0.4,0.1l-0.8,0.1c-0.1,0-0.2,0-0.2-0.1s0.1-0.1,0.1-0.1H30z"/>
	<path class="st10" d="M30.9,52.2h-0.4c-0.4,0-0.4,0-0.4-0.5C30.4,51.9,30.7,52,30.9,52.2L30.9,52.2z"/>
	<path class="st21" d="M29.1,51.2c-0.3,0-0.5-0.3-0.8-0.4c-0.1,0-0.1,0-0.1,0v0c0,0,0-0.1,0.1-0.1c0.1,0,0.2,0,0.3,0
		C28.7,50.9,29,50.9,29.1,51.2L29.1,51.2z"/>
	<path class="st10" d="M26.5,51.8c0.1,0.4,0.1,0.4-0.5,0.4c0-0.1,0.2-0.2,0.2-0.3l0,0C26.3,51.9,26.4,51.9,26.5,51.8z"/>
	<path class="st22" d="M29.1,51.1c-0.1-0.2-0.4-0.2-0.6-0.4c0,0,0,0,0-0.1c0.3,0,0.7,0.2,0.9,0.5v0.1L29.1,51.1z"/>
	<path class="st23" d="M29.7,55.9L29.7,55.9c0.3,0,0.5,0.2,0.6,0.4v0.1C30.1,56.3,29.9,56.1,29.7,55.9z"/>
	<path class="st24" d="M29,58c0.2,0,0.3,0,0.5-0.1c0,0.2,0,0.3-0.2,0.3h-0.7c0-0.2,0.1,0,0.2-0.1C28.9,58,29,58,29,58z"/>
	<path class="st25" d="M25.8,54.3c-0.1-0.2-0.1-0.5,0-0.7C25.9,53.9,25.9,54.1,25.8,54.3z"/>
	<path class="st20" d="M32.1,57.4c-0.1,0.3-0.3,0.2-0.5,0.3C31.6,57.2,31.9,57.5,32.1,57.4z"/>
	<path class="st26" d="M31.4,52.3c0.1-0.3-0.2-0.2-0.3-0.3l0,0l0,0l0.3,0c0.2,0.1,0.3,0.2,0.1,0.4L31.4,52.3z"/>
	<path class="st27" d="M28.9,58.1c-0.1,0-0.2,0-0.2,0.1h-0.1c-0.1,0-0.3,0-0.4,0c-0.1,0-0.2,0.1-0.3-0.1l0,0L28.9,58.1
		C28.9,58,28.9,58,28.9,58.1z"/>
	<path class="st28" d="M27.2,51.3l0.1-0.1c0.1-0.1,0.2-0.2,0.3-0.1c0,0,0,0.1,0,0.1L27.2,51.3L27.2,51.3z"/>
	<path class="st29" d="M33.3,56.4c-0.1,0.1-0.1,0.2-0.2,0.2C33,56.4,33,56.4,33.3,56.4z"/>
	<path class="st30" d="M30.9,52.2c0.1,0,0.2,0.1,0.3,0.2C31,52.4,30.9,52.5,30.9,52.2z"/>
	<path class="st31" d="M26.5,51.8C26.4,52,26.3,52,26.2,52C26.2,51.8,26.4,51.8,26.5,51.8L26.5,51.8z"/>
	<path class="st32" d="M25.9,55.9v0.4C25.7,56.2,25.8,56,25.9,55.9C25.8,55.8,25.8,55.9,25.9,55.9z"/>
	<path class="st33" d="M25.6,52.4c0.1-0.1,0.1-0.1,0.2-0.1s0,0.1,0,0.1S25.7,52.4,25.6,52.4z"/>
	<path class="st34" d="M27.9,58.1h0.3l0,0H27.9C27.8,58.1,27.8,58.1,27.9,58.1C27.8,57.9,27.9,58.1,27.9,58.1z"/>
	<path class="st35" d="M25.9,55.9L25.9,55.9v-0.4C25.9,55.6,25.9,55.8,25.9,55.9z"/>
	<path class="st36" d="M28.2,58.1L28.2,58.1c0.1,0,0.3,0,0.4,0H28.2z"/>
	<path class="st37" d="M28.9,58.1L28.9,58.1C28.9,58,29,58,29,58l0,0C29,58.1,29,58.1,28.9,58.1C28.9,58.1,28.9,58.1,28.9,58.1z"/>
	<path class="st38" d="M33.3,45.6c0-0.8,0-1.6,0-2.4l0,0c0,0,0.1,0.1,0.1,0.2c0,1.6,0.1,3.2,0,4.8c0,0.3,0,0.7-0.2,1
		c-0.1,0.2-0.2,0.3-0.4,0.3c-0.1,0-0.2,0.1-0.3,0.1h-0.1c0,0,0-0.1,0-0.1c0-0.1,0-0.2,0-0.2V49c0-0.1,0-0.2,0-0.3
		c0-0.1,0-0.1,0.1-0.2l0-0.1c0.2-0.3,0.1-0.6,0.4-0.8c0.2,0.1,0.2,0.1,0.2-0.2c0-0.1,0.1-0.2-0.1-0.2s-0.1-0.2,0-0.3s0.1-0.1,0-0.1
		s-0.2,0.2-0.4,0.1c0,0,0-0.1,0-0.1c0-0.2,0.1-0.5,0.3-0.6h0.1c0.1,0,0.1,0.1,0.1,0.2C33.2,46.1,33.2,45.9,33.3,45.6
		C33.3,45.7,33.3,45.7,33.3,45.6z"/>
	<path class="st38" d="M24.7,45.6c0.2,0,0.1-0.1,0.1-0.2c0-0.6,0-1.3,0-1.9c0-0.1,0-0.2,0.1-0.3v2.4h0.1v-2.4h0.1c0,0.1,0,0.2,0,0.3
		c0,1.7,0,3.4,0,5c0,0.3-0.1,0.5-0.2,0.7c0,0,0,0-0.1,0h-0.1h-0.1c-0.1,0-0.1,0.1-0.2,0.2s-0.1,0.2-0.2,0c0-0.1,0-0.2,0-0.2
		c0-0.1,0-0.3,0-0.4c0,0,0-0.1,0-0.1c0-0.1,0-0.2,0-0.2c0,0,0,0,0.1-0.1c0.2-0.2,0.2-0.5,0.4-0.8s0.1,0.1,0.2,0s0-0.2,0-0.3
		c0-0.1,0-0.2,0-0.4c0-0.1,0-0.1,0-0.2c0,0-0.1,0-0.1,0c-0.2,0-0.3,0.2-0.5,0s0.2-0.5,0.3-0.7c0,0,0.1,0,0.1,0c0.1,0,0.1,0,0.1,0.1
		C24.8,46,24.9,45.8,24.7,45.6C24.7,45.7,24.7,45.6,24.7,45.6z"/>
	<path class="st39" d="M26.7,44.5c0-0.1,0-0.2,0.1-0.3s0.1,0,0.1,0c0.1,0.2,0.3,0.1,0.5,0.1s0.2,0.1,0.3,0.1c0.3,0,0.7,0,1,0l0,0
		l0,0l-0.1-0.1c-0.2-0.2-0.6-0.2-0.8,0c0,0,0,0.1-0.1,0.1c-0.1,0-0.1,0-0.2-0.1c-0.1-0.2,0-0.3,0.2-0.5c-0.2,0-0.3,0.2-0.5,0.1l0,0
		c0-0.1,0.2-0.1,0.2-0.2s0.2-0.1,0.2-0.1c0-0.4,0.5-0.4,0.5-0.8c0-0.1,0.1-0.1,0.2-0.1c0.1,0,0.2,0,0.2,0.1c0.1,0.2,0.1,0.3,0.3,0.4
		c0.1,0,0,0.2,0,0.3S28.7,43.9,29,44c0,0,0,0,0,0.1c0,0.3,0.3,0.3,0.5,0.4c0.2,0,0.3,0,0.5,0c0.3,0,0.4,0.2,0.2,0.4s-0.4,0.7-0.6,1
		L29.6,46c-0.1,0-0.1-0.1-0.1-0.1c0-0.2,0-0.4,0-0.6c0,0-0.1-0.1-0.1-0.2c0-0.1,0-0.2-0.1-0.2c0,0-0.1,0-0.1-0.1c0,0,0-0.1,0-0.1
		c0,0,0.1,0,0.1-0.1s-0.1-0.1-0.1-0.1c-0.3,0-0.6,0-0.9,0s-0.8,0-1.2,0C26.9,44.6,26.8,44.7,26.7,44.5z"/>
	<path class="st40" d="M29.4,51.1c-0.3-0.2-0.6-0.4-0.9-0.5c-0.1,0-0.2,0-0.3,0l0,0c-0.3,0.2-0.6,0.3-0.9,0.4h-0.2c0,0,0-0.1,0-0.1
		v-0.1c-0.4,0-0.8-0.2-1.1,0.2c0,0-0.1,0-0.1,0c0-0.3,0.1-0.4,0.4-0.4c0.1,0,0.3,0.1,0.3-0.1s0.2-0.4-0.1-0.6c0.1,0,0.2,0,0.3,0
		c1,0,2,0,3.1,0c0.1,0,0.3,0,0.3-0.2c0.1,0.1,0.1,0.2,0,0.2c-0.2,0.1-0.1,0.2-0.1,0.4c0,0.3,0.2,0.4,0.4,0.3s0.4-0.1,0.3,0.2
		s-0.3,0.1-0.4,0.2s0-0.1-0.1-0.1s-0.1-0.1-0.2-0.1h-0.1h-0.3L29.8,51c-0.1,0-0.2-0.1-0.3,0s0.1,0.1,0.1,0.2c0,0,0,0.1,0,0.1
		L29.4,51.1z"/>
	<path class="st41" d="M23.4,49.4c-0.1-0.8-0.1-1.6-0.1-2.4c0-1.2,0-2.3,0-3.5c0-0.1,0-0.2,0.1-0.3v2.5c0.1,0.1,0.1,0.2,0.1,0.4
		c0,0.2,0,0.4,0,0.7c0,0.3,0,0.6,0,0.8c0,0.2,0,0.4,0,0.5s0,0.1,0,0.1s-0.2,0.3,0,0.5s0.1,0.3,0.3,0.4s0.1,0.2,0,0.2s-0.2,0-0.3-0.1
		h-0.1l0,0l0,0c0,0,0,0.1,0,0.2C23.4,49.4,23.4,49.4,23.4,49.4z"/>
	<path class="st42" d="M33.1,46.2L33.1,46.2c-0.2-0.1-0.2,0.1-0.3,0.3c0,0.1-0.1,0.2-0.1,0.3c0,0,0,0.1-0.1,0.1
		c-0.1,0-0.2,0.1-0.3,0.1c-0.1-0.1-0.3-0.2-0.3-0.3c0-0.1,0-0.1,0.1-0.2c0.2-0.1,0.1-0.3,0.2-0.4l0.1,0c0.2,0,0-0.1,0.1-0.2
		s0.1-0.4,0.4-0.4l0,0l0,0c0-0.6,0-1.1,0-1.7c0-0.1,0-0.3,0.1-0.4s0-0.2,0.1-0.3c0,0.1,0,0.2,0,0.3c0,0.6,0,1.3,0,1.9
		c0,0.1-0.1,0.2,0.1,0.2c0,0,0,0,0.1,0.1l0,0l-0.1,0.1C33.1,45.8,33.2,46.1,33.1,46.2z"/>
	<path class="st40" d="M26.7,44.5c0.2,0.1,0.4,0.1,0.6,0.1h1c-0.1,0.2-0.2,0.1-0.3,0.1h-1.1c0,0,0,0,0,0c0.3,0,0.5,0,0.8,0
		s0.3,0.1,0.1,0.2s0,0.2-0.1,0.3c0,0,0,0-0.1,0c-0.1,0-0.1,0-0.2-0.1c-0.1,0-0.1,0-0.2,0c-0.2,0.1-0.1,0.3-0.2,0.3c0,0,0,0-0.1,0
		c-0.2-0.2-0.4-0.5-0.5-0.8C26.3,44.7,26.4,44.5,26.7,44.5z"/>
	<path class="st43" d="M29.5,46.3c0,0.1,0.1,0.1,0.2,0.2s0,0.2-0.1,0.2l-0.1,0.1h-0.1h-1.6c-0.1,0-0.2,0-0.3,0
		c-0.1,0.1-0.1,0.2-0.1,0.3s-0.1,0.2-0.2,0.1s0.2-0.4-0.1-0.5c-0.1,0,0-0.1,0-0.2s0.2-0.1,0.2-0.3c0,0,0.1,0,0.1,0c0,0,0,0.1,0,0.1
		c0,0,0,0.1,0,0.1s0.2,0,0.3,0.1c0.6,0,1.1,0,1.7,0.1c-0.2,0-0.3-0.2-0.5-0.1h-0.6c-0.1,0-0.2,0-0.3,0s-0.2,0-0.1-0.2
		c0.3-0.1,0.7-0.1,1-0.1c0.2,0,0.4,0,0.5,0c0,0,0.1,0,0.1,0C29.5,46.2,29.5,46.3,29.5,46.3z"/>
	<path class="st44" d="M24.7,46.2L24.7,46.2c-0.2-0.1-0.2,0.2-0.4,0.2c-0.2-0.3-0.2-0.7,0-1.1c-0.1,0-0.1,0.1-0.2,0.1s0-0.1,0-0.2
		c0-0.1,0.1-0.2,0.1-0.3l0,0c0.1,0.1,0.1,0.1,0.1,0v-1.4c0-0.1,0-0.2,0.1-0.3c0.1,0.1,0.1,0.2,0.1,0.3c0,0.7,0,1.3,0,1.9
		c0,0.2,0,0.3,0.1,0.5c0,0,0.1,0,0.1,0c0,0,0,0,0,0C24.8,46,24.9,46.1,24.7,46.2z"/>
	<path class="st45" d="M26.9,49.8h-0.1c0.1-0.2-0.2-0.4-0.2-0.6s0.2-0.1,0.3-0.1l0.1,0.1c0.2,0,0.4,0,0.6,0c0.8,0,1.6,0,2.4,0
		c0.1,0,0.1,0.1,0.1,0.1c-0.1,0-0.1,0.1-0.1,0.2c0,0-0.1,0-0.1,0c-0.1,0-0.3,0-0.4,0h-2c-0.2,0-0.3,0-0.5,0.1
		C26.9,49.7,26.9,49.7,26.9,49.8z"/>
	<path class="st46" d="M26.8,49.2L26.8,49.2c0-0.2,0.2-0.3-0.1-0.4c0-0.1,0-0.1,0.1-0.1c1-0.1,2-0.1,3,0c0,0,0.1,0,0,0.1
		s0,0.2,0,0.3s0,0.1,0,0.1c-0.8,0.1-1.6,0-2.3,0C27.3,49.2,27,49.2,26.8,49.2z"/>
	<path class="st47" d="M32.3,50.3c-0.2-0.1-0.3-0.2-0.4-0.4c0,0,0-0.1,0-0.1c0-0.1,0-0.3,0.2-0.3s0.2,0.3,0.4,0.3s0.1,0.1,0.2,0.1
		s0.1-0.2,0.2-0.3s0.2-0.3,0.4-0.1c0,0,0.1,0.1,0.1,0.1c0,0.1,0,0.2-0.1,0.3s-0.4,0.3-0.5,0.5 M32.6,50.3c-0.1,0,0-0.2-0.2-0.1
		L32.6,50.3z"/>
	<path class="st48" d="M25.9,51.1L25.9,51.1c0.1-0.4,0.4-0.3,0.6-0.3s0.6,0,0.8,0c0,0.1-0.2,0.1-0.2,0.2L27,51.2
		c-0.2,0.2-0.4,0.3-0.6,0C26.2,51.2,26,51.3,25.9,51.1z"/>
	<path class="st49" d="M27.1,47.3c0.1,0,0.2,0,0.2-0.1c0-0.1,0-0.2,0.1-0.3c0.1,0,0.2,0,0.2,0.1s0.2,0.2,0.3,0.2c0.4,0,0.8,0,1.2,0
		l0.4,0.1c0.1,0,0.1,0,0.2,0l0.1,0.1c0,0,0,0.1,0,0.1c-0.3,0-0.5,0-0.8,0h-1.5c-0.1,0-0.3,0-0.4-0.1C27,47.3,27,47.3,27.1,47.3z"/>
	<path class="st46" d="M29.8,47.9c0.1,0,0.1,0,0.1,0.1c0,0,0,0.1,0,0.1c-0.2,0.1-0.1,0.3-0.1,0.5s-0.1,0-0.2,0
		c0-0.3-0.3-0.2-0.4-0.2c-0.6,0-1.2,0-1.8,0c-0.2,0-0.3,0.2-0.5,0.3s-0.1-0.1-0.1-0.2s0-0.2-0.1-0.3s-0.1-0.2,0-0.3l0.1,0H27
		c0.9,0,1.7,0,2.6,0h0.1L29.8,47.9z"/>
	<path class="st50" d="M32.4,46L32.4,46c-0.2,0.1-0.3,0-0.4,0.2c-0.2-0.1-0.1-0.3-0.1-0.5l0,0c0.2,0,0.1-0.2,0.1-0.3
		c0-0.7,0-1.5,0-2.2c0.1,0.8,0,1.7,0.1,2.5c0.1-0.2,0-0.4,0.1-0.5c0.1,0,0.1,0.1,0.1,0.2C32.3,45.6,32.4,45.8,32.4,46z"/>
	<path class="st51" d="M27,47.5c-0.1,0-0.2,0-0.1-0.1c0.9,0,1.8,0,2.6,0c0,0,0.1,0,0.1,0.1c0,0.1-0.1,0.1-0.2,0.2
		c-0.1,0-0.2,0-0.3,0c-0.6,0-1.2,0-1.8,0C27.2,47.6,27.1,47.5,27,47.5z"/>
	<path class="st52" d="M31.7,45.6v-2.5h0.1v2.5l0,0C31.9,45.7,31.8,45.7,31.7,45.6L31.7,45.6C31.7,45.7,31.7,45.7,31.7,45.6z"/>
	<path class="st53" d="M32.9,43.4v2.4c-0.1-0.1-0.1-0.3-0.2-0.4c0-0.1,0-0.1,0-0.2c0.1-0.5,0.1-1.1,0.1-1.7c0-0.1,0-0.3,0-0.4
		C32.9,43.2,32.8,43.4,32.9,43.4z"/>
	<path class="st54" d="M23.9,45.3v-2.2c0.2,0,0.1,0.1,0.1,0.2c0,0.5,0,0.9,0,1.4c0,0.1,0,0.2,0.1,0.2l0,0
		C24.2,45.1,24.1,45.2,23.9,45.3C23.9,45.3,23.9,45.3,23.9,45.3z"/>
	<path class="st46" d="M32.3,45.3v-0.1v-1.8c0-0.1,0-0.2,0.1-0.2s0.1,0.1,0.1,0.2c0,0.5,0,1,0,1.6c0.1,0.1,0.1,0.2,0.1,0.3
		C32.5,45.3,32.4,45.3,32.3,45.3z"/>
	<path class="st55" d="M30.2,50.8h0.2c0,0.1,0,0.2,0.1,0.2c0,0,0,0.1,0,0.1c-0.1,0-0.2,0-0.2,0.1c0,0.1,0,0.2,0.1,0.2
		c0.1,0,0.2,0.1,0.2,0.2c0,0,0,0-0.1,0c-0.3-0.1-0.6-0.3-0.9-0.5V51c0-0.1,0.2,0,0.2-0.2c0-0.1,0.1-0.1,0.1-0.1c0,0.1,0.1,0,0.1,0
		L30.2,50.8C30.1,50.8,30.1,50.9,30.2,50.8z"/>
	<path class="st44" d="M24,50.3c-0.2-0.1-0.3-0.3-0.4-0.5c0.1,0,0-0.2,0-0.2s0.2,0,0.3,0.1c0-0.1,0-0.1,0-0.2c0,0,0,0,0.1,0
		s0.1,0.1,0.2,0.2s0.1,0.2,0.1,0.4c0,0,0,0.1,0,0.1C24.2,50.1,24.1,50.1,24,50.3L24,50.3z"/>
	<path class="st56" d="M31.6,49.4v-0.6c0.1-0.2,0.1-0.4,0-0.6c0-0.1,0-0.1,0-0.2c0-0.1,0-0.2,0-0.4c0,0,0.1-0.1,0.1-0.1
		c0,0,0.1,0,0.1,0c0,0.2,0,0.4,0.1,0.6c-0.1,0.4,0,0.7,0.3,1c0,0,0,0.1,0,0.1c-0.1,0.1-0.2,0-0.3,0h-0.1l0,0l0,0c0,0,0,0.1,0,0.1
		L31.6,49.4z"/>
	<path class="st57" d="M26.9,48.4c0,0.1,0,0.1,0.1,0.1c0.1-0.1,0.3-0.1,0.4-0.1h2.2l0.1,0.1c0.2,0,0.2,0.1,0.1,0.2l0,0
		c-0.1-0.1-0.2-0.1-0.2-0.1H27c-0.1,0-0.1,0-0.2,0l-0.1,0.1C26.5,48.5,26.9,48.6,26.9,48.4z"/>
	<path class="st58" d="M26.9,49.8c0,0-0.1-0.1,0-0.1c0.1,0,0.2,0,0.3,0c0.7,0,1.5,0,2.2,0c0.2,0,0.3,0,0.5-0.1h0.1
		c0.1,0.1,0.1,0.3-0.1,0.3L26.9,49.8z"/>
	<path class="st59" d="M23.7,43.2L23.7,43.2c0.1,0.6,0.1,1.2,0.1,1.8c0,0.2,0,0.5,0.2,0.7C24,45.8,24,45.9,24,46
		c-0.1,0.2-0.2,0-0.3,0c-0.1,0-0.1-0.1-0.1-0.2c0,0,0-0.1,0-0.1c0,0,0-0.1,0-0.1h0.1c0-0.3,0-0.6,0-0.9
		C23.7,44.2,23.6,43.7,23.7,43.2z"/>
	<path class="st46" d="M24.3,50.1L24.3,50.1c0.2-0.2,0.2-0.5,0.4-0.6s0.2,0.1,0.3,0.1c0,0,0,0.1,0,0.1c-0.1,0.3-0.4,0.5-0.6,0.7
		C24.2,50.2,24.2,50.2,24.3,50.1z"/>
	<path class="st60" d="M32.4,44.9v-1.8h0.1c0.1,0.6,0,1.1,0.1,1.7c0,0,0,0.1,0,0.1C32.5,45,32.5,45,32.4,44.9z"/>
	<path class="st61" d="M33.2,49.5c-0.3-0.1-0.3,0.2-0.4,0.3s0,0.2-0.2,0.1s-0.1-0.3,0-0.4c0.1,0,0.1-0.1,0.2-0.2c0,0,0-0.1,0.1-0.1
		s0,0.1,0,0.2c0.1-0.2,0.3-0.1,0.4-0.3v0.2C33.2,49.4,33.4,49.5,33.2,49.5z"/>
	<path class="st52" d="M24.2,44.9v-1.7h0.1v1.7l0,0C24.3,44.9,24.3,45,24.2,44.9L24.2,44.9z"/>
	<path class="st62" d="M24.5,50.9L24.5,50.9c-0.2,0.2-0.1,0.4-0.2,0.5l0,0c-0.1,0.2,0,0.4,0,0.6s-0.1-0.1-0.1-0.1s0-0.2,0-0.3
		s0-0.4-0.1-0.7c0,0,0-0.1,0-0.1c0.1-0.1,0.3-0.2,0.4-0.2c0.1,0,0.2,0,0.3,0C24.8,50.9,24.6,50.8,24.5,50.9z"/>
	<path class="st63" d="M24,45.8c-0.2-0.1-0.2-0.2-0.2-0.4c0-0.8,0-1.5,0-2.2c0,0.6,0,1.2,0,1.8c0,0.1,0,0.3,0.1,0.3h0.1
		C24,45.5,24,45.7,24,45.8z"/>
	<path class="st64" d="M31.7,47.6c-0.1,0.1-0.1,0.2,0,0.3c0,0.1,0,0.3,0,0.4c0,0.1,0,0.1,0,0.2l0,0c0,0,0-0.2,0-0.2s0-0.2,0-0.2
		c0,0.2,0.2,0.5-0.1,0.6c-0.1-0.1,0-0.2,0-0.3c0-0.7,0-1.4,0-2.1c0,0,0.1,0,0.1,0C31.7,46.7,31.7,47.2,31.7,47.6z"/>
	<path class="st65" d="M31.6,46.3L31.6,46.3v-3.1h0.1v2.5C31.8,45.9,31.8,46.1,31.6,46.3z"/>
	<path class="st66" d="M29.8,47.9V48c-0.1,0.1-0.2,0.1-0.3,0.1h-2.4c-0.1,0-0.2,0-0.2-0.1v-0.1c0-0.1,0.1,0,0.1-0.1h0.2h2.1
		C29.5,47.8,29.6,47.8,29.8,47.9L29.8,47.9z"/>
	<path class="st67" d="M32.8,43.2v2.1c-0.1,0-0.3,0.1-0.4,0s0.1-0.1,0.1-0.2s0.1-0.1,0.2-0.1c0-0.5,0.1-1,0-1.5
		C32.8,43.4,32.7,43.3,32.8,43.2z"/>
	<path class="st68" d="M31.6,46.3v-0.6l0.1-0.1v0.1c0.1,0.1,0.1,0.2,0,0.3c0,0.1,0,0.3,0,0.4c0,0.1,0,0.1,0,0.2c0,0.1,0,0.2,0,0.3
		c0,0,0,0.1,0,0.1c0,0,0,0.1,0,0.1c0,0.1,0,0.2,0,0.4c0,0,0,0.1,0,0.1h-0.1C31.6,47.1,31.6,46.7,31.6,46.3z"/>
	<path class="st69" d="M32.9,50.8c-0.1,0-0.2,0.1-0.3,0.2s-0.1,0.2-0.1,0.3c0,0.1,0,0.2-0.1,0.2c0,0-0.1,0-0.1,0
		c0,0-0.1-0.1-0.1-0.1c0-0.1,0-0.3-0.1-0.4v-0.1c0-0.1,0.1-0.1,0.1-0.1c0.1,0,0.2-0.1,0.3-0.1s0.2,0,0.3,0l0,0
		C33.1,50.8,33.1,50.9,32.9,50.8z"/>
	<path class="st70" d="M24.7,45.8L24.7,45.8l-0.1-2.6h0.1v2.4V45.8C24.8,45.8,24.8,45.8,24.7,45.8z"/>
	<path class="st8" d="M29.7,47.4h-2.7l0,0H29.7L29.7,47.4z"/>
	<path class="st63" d="M23.6,45.7L23.6,45.7C23.5,45.8,23.5,45.8,23.6,45.7l-0.1-2.2c0-0.1,0-0.2,0-0.3c0,0.3,0,0.5,0,0.8
		C23.6,44.5,23.5,45.1,23.6,45.7z"/>
	<path class="st63" d="M23.7,43.2v2.5h0c0.1-0.7,0-1.4,0-2.1C23.7,43.4,23.6,43.3,23.7,43.2z"/>
	<path class="st65" d="M23.5,43.2v2.5c-0.1,0-0.1,0-0.1-0.1c0-0.7,0-1.4,0-2.2C23.4,43.4,23.4,43.3,23.5,43.2z"/>
	<path class="st71" d="M29.5,46.3L29.5,46.3c-0.2-0.1-0.3-0.2-0.3-0.4c0-0.1,0-0.2,0-0.2c0-0.1,0-0.3,0-0.4s0-0.2,0.1-0.2
		c0,0.1,0,0.1,0.1,0.1c0.1,0.2,0,0.5,0,0.7l0,0.1L29.5,46.3z"/>
	<path class="st5" d="M33.3,45.6L33.3,45.6l-0.1-2.4h0.1V45.6z"/>
	<path class="st72" d="M26.4,51.2c0-0.1,0.2-0.1,0.2,0c0.1,0.3,0.2,0.1,0.3,0s0.2,0,0.3-0.1v0.1c-0.2,0.2-0.5,0.3-0.8,0.4l0,0l0,0
		c0.1-0.1,0.2-0.2,0.1-0.3C26.5,51.3,26.5,51.2,26.4,51.2z"/>
	<path class="st73" d="M24.4,50.7c-0.1,0.1-0.2,0.2-0.4,0.2c-0.1,0-0.1-0.1-0.1-0.2l0.1-0.1c0-0.1,0-0.1,0-0.2s0.1,0.1,0.1,0
		s0-0.2,0.1,0S24.2,50.7,24.4,50.7L24.4,50.7L24.4,50.7z"/>
	<path class="st74" d="M27.3,46.3h-0.1V46c0-0.1-0.1-0.2-0.1-0.3s0-0.3,0.1-0.4s0.1-0.2,0.2,0s0,0.5,0,0.7
		C27.5,46.1,27.4,46.2,27.3,46.3z"/>
	<path class="st75" d="M26.4,51.5L26.4,51.5C26.2,51.7,26,52,25.7,52C25.9,51.7,26.1,51.6,26.4,51.5z"/>
	<path class="st76" d="M24.3,50.4C24.2,50.4,24.3,50.4,24.3,50.4l-0.1,0.1L24.3,50.4c-0.1,0-0.2-0.1-0.2-0.2c0-0.2,0.2-0.1,0.3-0.1
		s0,0.2,0.1,0.2C24.4,50.3,24.4,50.4,24.3,50.4C24.3,50.4,24.3,50.4,24.3,50.4z"/>
	<path class="st77" d="M30.5,51.6L30.5,51.6c0.3,0,0.5,0.2,0.7,0.3v0C30.9,52,30.7,51.7,30.5,51.6z"/>
	<path class="st78" d="M24.1,51.6c0.2,0.1,0,0.3,0.1,0.4c0.1,0.1,0.1,0.1,0.1,0c0,0.1-0.1,0.2-0.2,0.2s0-0.2,0-0.3
		S24.1,51.7,24.1,51.6L24.1,51.6z"/>
	<path class="st79" d="M24.1,51.6L24.1,51.6C24,51.4,24,51.2,24,50.9c0,0,0,0,0.1,0C24.2,51.2,24.1,51.4,24.1,51.6z"/>
	<path class="st80" d="M29.7,47.9c-0.1,0.1-0.2,0-0.3,0.1c0,0,0-0.1,0-0.1c0.1-0.1,0.1-0.2,0.1-0.3c0-0.1,0.1-0.1,0.2,0l0,0
		C29.6,47.6,29.6,47.7,29.7,47.9z"/>
	<path class="st81" d="M32.7,50.7c0,0-0.1,0.2-0.2,0.1c-0.1,0-0.1-0.1-0.1-0.2c0-0.1-0.1-0.3,0.1-0.3h0.1
		C32.6,50.4,32.5,50.6,32.7,50.7L32.7,50.7L32.7,50.7z"/>
	<path class="st82" d="M32.5,50.6v0.2h-0.1c-0.1,0-0.2-0.1-0.1-0.2c0.3-0.1,0.1-0.3,0.1-0.4v-0.1c0.1,0,0.2,0,0.2,0.2
		C32.4,50.4,32.5,50.5,32.5,50.6z"/>
	<path class="st83" d="M26.9,44.3L26.9,44.3c0.1-0.2,0.2-0.4,0.4-0.4l0,0C27.3,44.2,27.1,44.3,26.9,44.3z"/>
	<path class="st84" d="M23.7,49.6c-0.1,0.1,0.3,0.3-0.1,0.2c-0.1,0-0.2-0.1-0.2-0.2s0-0.2,0-0.2c0,0,0.1,0,0.1,0
		C23.5,49.4,23.6,49.5,23.7,49.6L23.7,49.6z"/>
	<path class="st85" d="M23.4,45.6C23.4,45.6,23.4,45.7,23.4,45.6l0.1,0.1v0.1c0,0.1,0.1,0.2,0,0.3c0,0,0,0.1,0,0.1
		c-0.1,0-0.1,0-0.1-0.1l0,0V45.6L23.4,45.6z"/>
	<path class="st86" d="M27.1,47.9c-0.1,0-0.1,0-0.1-0.1c0-0.1,0.1-0.2,0-0.3c0.1-0.1,0.2-0.1,0.2,0c0,0,0,0,0,0
		C27.3,47.6,27.2,47.8,27.1,47.9L27.1,47.9z"/>
	<path class="st87" d="M32.4,51c0.1,0.2,0.1,0.3,0.1,0.5c0,0,0,0.1,0,0.1c0,0,0,0,0,0c0-0.3-0.1-0.5-0.1-0.7
		C32.3,50.8,32.3,50.9,32.4,51z"/>
	<path class="st88" d="M32.4,51l-0.1-0.1l0,0c-0.1-0.1-0.2-0.1-0.3,0c-0.2,0-0.1-0.1,0-0.2h0.1c0.1,0.1,0.2,0,0.3,0.1l0,0
		C32.4,50.9,32.5,50.8,32.4,51L32.4,51z"/>
	<path class="st89" d="M31.9,50.7c0,0-0.1,0.1,0.1,0.1s0.1,0,0.1,0S31.9,51,31.8,51s-0.1-0.1-0.1-0.1S31.7,50.7,31.9,50.7z"/>
	<path class="st90" d="M24.5,50.9c0.1-0.1,0.3,0,0.2-0.2l0,0c0.1,0.1,0.2,0.2,0.1,0.3S24.6,50.8,24.5,50.9z"/>
	<path class="st91" d="M32.6,45.1l-0.1,0.1l0,0l0,0V45h0c0,0,0.1,0,0.1,0C32.6,45,32.6,45.1,32.6,45.1z"/>
	<path class="st92" d="M27.2,45.8c0.1,0.1,0.1,0.2,0,0.3L27,45.7L27.2,45.8C27.1,45.7,27.2,45.7,27.2,45.8z"/>
	<path class="st93" d="M24,50.9L24,50.9l-0.2-0.1c-0.1,0-0.2,0-0.2-0.1s0.2-0.1,0.3,0h0L24,50.9L24,50.9z"/>
	<path class="st94" d="M32.6,51.5c0,0.2,0.1,0.5-0.1,0.6c0,0,0-0.1,0-0.2C32.4,51.8,32.4,51.7,32.6,51.5L32.6,51.5
		C32.5,51.5,32.6,51.5,32.6,51.5z"/>
	<path class="st50" d="M23.6,50.9c0,0,0,0.1-0.1,0.1s-0.1,0-0.1-0.1s-0.1-0.2,0.1-0.2c0,0,0.1,0,0.1,0
		C23.6,50.8,23.6,50.8,23.6,50.9z"/>
	<path class="st95" d="M32.4,52v0.2C32.3,52.2,32.4,52,32.4,52c-0.1-0.2-0.1-0.3-0.1-0.4l0,0C32.6,51.7,32.4,51.9,32.4,52z"/>
	<path class="st96" d="M32.6,51.5L32.6,51.5c-0.1-0.1,0-0.2,0-0.3s-0.1-0.2,0.1-0.2C32.7,51.2,32.7,51.4,32.6,51.5z"/>
	<path class="st28" d="M24.3,51.5c0-0.2-0.1-0.4,0.1-0.5C24.3,51.1,24.4,51.3,24.3,51.5z"/>
	<path class="st86" d="M32.9,50.8c0.1,0,0.1,0,0.1-0.1c0.1,0,0.1,0.1,0.1,0.1c0,0,0,0.1,0,0.1C33.1,51,33,50.9,32.9,50.8z"/>
	<path class="st46" d="M24.3,52L24.3,52c0-0.2-0.1-0.4,0-0.6L24.3,52z"/>
	<path class="st97" d="M29.6,47.2c0,0.1-0.1,0.1-0.1,0c-0.1,0-0.1-0.1-0.1-0.2c0-0.1,0-0.2,0-0.3h0.1C29.5,46.9,29.5,47.1,29.6,47.2
		z"/>
	<path class="st98" d="M31.9,49.8L31.9,49.8c-0.1,0-0.2-0.1-0.2-0.2c0,0,0-0.1,0.1-0.1C31.9,49.6,32,49.7,31.9,49.8z"/>
	<path class="st99" d="M32.7,50.7L32.7,50.7c0.1-0.1,0.3-0.2,0.4-0.1L32.7,50.7z"/>
	<path class="st100" d="M24,50.2c0.1,0.1,0.1,0.2,0.2,0.3l-0.1,0.2L24,50.2L24,50.2z"/>
	<path class="st101" d="M23.4,49.4c0,0.1,0,0.2-0.1,0.2C23.4,49.5,23.3,49.5,23.4,49.4L23.4,49.4L23.4,49.4
		C23.4,49.4,23.4,49.3,23.4,49.4z"/>
	<path class="st102" d="M23.6,50.9v-0.2l0,0c0.1,0,0.2,0,0.3,0.1L23.6,50.9z"/>
	<path class="st5" d="M30.4,51.1L30.4,51.1c0,0-0.2-0.1,0-0.1h0.2L30.4,51.1L30.4,51.1z"/>
	<path class="st5" d="M23.6,50.8L23.6,50.8L23.6,50.8c0.1-0.1,0.2-0.2,0.4,0C23.8,50.7,23.7,50.6,23.6,50.8z"/>
	<path class="st103" d="M25,49.6L25,49.6c-0.1-0.2-0.1-0.2-0.1-0.3H25C25,49.4,25.1,49.5,25,49.6z"/>
	<path class="st104" d="M29.7,47.5L29.7,47.5v-0.1c0,0,0,0,0-0.1C29.8,47.3,29.8,47.4,29.7,47.5z"/>
	<path class="st105" d="M29.9,49.2L29.9,49.2c0.2,0,0.2,0.1,0.1,0.3l-0.1-0.1C29.9,49.3,29.9,49.2,29.9,49.2z"/>
	<path class="st106" d="M31.8,49.6L31.8,49.6l-0.1-0.2l0,0C31.8,49.4,31.8,49.5,31.8,49.6z"/>
	<path class="st107" d="M32.7,51.1l-0.1,0.2C32.5,51.2,32.5,51.1,32.7,51.1C32.6,51,32.7,51,32.7,51.1L32.7,51.1z"/>
	<path class="st108" d="M24.7,50.7L24.7,50.7h-0.3l0,0C24.5,50.6,24.6,50.6,24.7,50.7z"/>
	<path class="st109" d="M32,50.8L32,50.8c0-0.1,0.1-0.1,0.1,0c0,0,0,0,0,0C32.1,50.9,32.1,50.8,32,50.8z"/>
	<path class="st110" d="M33.2,49.5c0.1,0,0-0.2,0.1-0.2s0,0.2,0,0.2L33.2,49.5z"/>
	<path class="st111" d="M32.3,50.7c-0.1,0-0.2,0.1-0.3-0.1C32,50.6,32.2,50.6,32.3,50.7z"/>
	<path class="st26" d="M32.6,45.1v-0.2l0-0.1l0.1,0.1L32.6,45.1z"/>
	<path class="st112" d="M26.2,53.3l0.1-0.1c0,0,0.1,0,0.1,0c0.2,0.3,0.4,0.5,0.7,0.7c0.2,0.2,0.3-0.1,0.5-0.2h0.1c0,0,0-0.1,0-0.1
		c0,0,0,0,0,0c0,0,0-0.1-0.1-0.2c0,0,0-0.1,0-0.1c0.1,0.1,0.3,0.2,0.4,0.4c0.1,0.1,0.3,0.2,0.4,0.1c0,0,0.1,0,0.1-0.1
		c0.1-0.2,0.3-0.3,0.4-0.3c0,0,0,0.1,0,0.1c0,0.1-0.1,0.2-0.2,0.3c-0.3,0.2-0.5,0.4-0.8,0.7c-0.1,0.1-0.2,0.2-0.3,0.1
		c0,0,0-0.1,0-0.1c0-0.1,0.2-0.2,0.1-0.3s-0.2,0.1-0.3,0.1c-0.1,0.1-0.3,0.1-0.4,0c-0.3-0.2-0.6-0.4-0.8-0.7
		C26.2,53.5,26.1,53.4,26.2,53.3L26.2,53.3z"/>
	<path class="st113" d="M27.8,54.5c0.4-0.3,0.9-0.7,1.3-1.1c0.1-0.1,0.2-0.3,0.4-0.3c0,0,0,0.1,0,0.1c0,0.1-0.2,0.2-0.2,0.2
		c-0.1,0.1-0.1,0.1-0.2,0.2c-0.1,0.1-0.1,0.1-0.2,0.1c-0.2,0.1-0.3,0.3-0.4,0.4s-0.2,0.1-0.3,0.2c-0.1,0.1-0.1,0.1-0.2,0.2l0,0
		c-0.1,0.1-0.2,0.1-0.3,0.2l0,0c-0.1,0.1-0.2,0.2-0.3,0.3h0c0,0-0.1,0-0.1-0.1c0,0,0-0.1,0-0.1C27.4,54.6,27.6,54.5,27.8,54.5z"/>
	<path class="st44" d="M28.4,54.2c0.2-0.2,0.2-0.4,0.5-0.4c0.1,0,0.1,0,0.1,0.1l-0.3,0.3c0.3,0.2,0.6,0.5,0.8,0.7c0,0,0,0-0.1,0
		c-0.1,0-0.1,0-0.2,0c-0.1,0-0.1-0.1-0.2-0.2l0,0c-0.1,0-0.2-0.1-0.2-0.1l-0.1-0.1C28.6,54.3,28.4,54.3,28.4,54.2z"/>
	<path class="st114" d="M30.2,55.2c0.2-0.2,0.1-0.3-0.2-0.4s-0.3-0.1-0.2-0.4c0.1,0.4,0.4,0.2,0.6,0.3c0,0.1,0.1,0.1,0.1,0.2
		c0,0.1,0,0.2,0,0.3v0.1c0,0-0.1,0.1-0.2,0.1C30.2,55.2,30.2,55.2,30.2,55.2z"/>
	<path class="st43" d="M29.9,52.8c0.3,0,0.3,0.2,0.4,0.3s0,0.3-0.2,0.4s-0.1,0.2-0.3,0.2l0,0c0-0.1,0-0.1,0-0.2
		c0.3-0.2,0.2-0.4,0-0.6C29.9,53,29.9,52.9,29.9,52.8L29.9,52.8z"/>
	<path class="st21" d="M27.7,53.3v0.1c-0.2,0-0.3-0.1-0.4-0.2c0-0.1-0.1-0.1-0.2-0.2c-0.1-0.1-0.2-0.1-0.2-0.2s-0.1-0.1,0-0.2
		c0.2-0.1,0.3,0.1,0.4,0.2C27.5,53,27.6,53.1,27.7,53.3z"/>
	<path class="st115" d="M29.4,53.1L29,53.4v-0.1c0.2-0.2,0.4-0.4,0.7-0.6c0.2-0.1,0.3-0.1,0.2,0.1l0,0c0,0-0.1,0-0.2,0
		C29.6,52.9,29.6,52.9,29.4,53.1L29.4,53.1z"/>
	<path class="st116" d="M29.9,53.7c-0.1,0.2-0.2,0.2-0.3,0.4s-0.2,0-0.2,0l-0.3-0.3c0,0,0-0.1,0.1-0.1c0.2,0.1,0.4,0.2,0.7,0
		C29.8,53.7,29.9,53.7,29.9,53.7L29.9,53.7z"/>
	<path class="st117" d="M30.2,55.2l0.1-0.1c0,0,0,0.1,0,0.1v0.2c-0.2,0-0.4,0.1-0.5,0c-0.1-0.1-0.2-0.2-0.3-0.3c0,0,0-0.1,0-0.1
		c0.1-0.1,0.1,0,0.2,0l0.3,0.2C30,55.2,30.2,55.2,30.2,55.2z"/>
	<path class="st118" d="M26.1,55.4v-0.1c0-0.1,0-0.2,0.1-0.3c0-0.1,0.1-0.1,0.2-0.1c0.1,0,0.1,0.1,0.1,0.1c0,0,0,0.1,0,0.1
		c0,0.1,0,0.1,0,0.2c0,0,0,0.1,0,0.1l0,0.1C26.4,55.4,26.2,55.4,26.1,55.4z"/>
	<path class="st119" d="M26.9,52.7l0.1,0.1l0,0l0,0l-0.1,0c-0.2,0-0.2,0.3-0.5,0.3l0,0C26.4,53,26.7,52.9,26.9,52.7z"/>
	<path class="st83" d="M27.3,55.1c0,0.2-0.2,0.4-0.4,0.4 M26.8,55.4c0-0.1,0-0.1,0.1-0.2c0.1-0.1,0.2-0.3,0.4-0.2L26.8,55.4z"/>
	<path class="st120" d="M30.4,55.2v-0.1l0,0c0-0.1,0-0.2,0-0.3v-0.2C30.6,54.9,30.6,55,30.4,55.2z"/>
	<path class="st23" d="M28.4,54.2c0.1,0.1,0.2,0.2,0.2,0.3c-0.1,0-0.2-0.2-0.4-0.1s0,0-0.1,0S28.3,54.2,28.4,54.2z"/>
	<path class="st121" d="M27.3,55.1l-0.4,0.3c0,0-0.1,0-0.1,0c0-0.2,0.3-0.4,0.5-0.4V55.1L27.3,55.1z"/>
	<path class="st122" d="M26.1,55.6L26.1,55.6c0.1,0,0.2,0,0.2,0.1c0.1,0,0.1,0.1,0,0.2c0,0,0,0,0,0c-0.1,0.1-0.1,0-0.1-0.1
		L26.1,55.6z"/>
	<path class="st123" d="M29.8,55.3c0.2,0.1,0.4,0,0.5,0.1C30.1,55.5,29.9,55.5,29.8,55.3C29.7,55.4,29.7,55.3,29.8,55.3z"/>
	<path class="st15" d="M29.5,54.9v0.1l0,0l-0.2-0.1c0,0,0,0,0-0.1c0,0,0-0.1,0-0.1h0.2C29.5,54.8,29.5,54.9,29.5,54.9z"/>
	<path class="st124" d="M27.4,55c0-0.1,0.2-0.3,0.3-0.3C27.7,54.9,27.6,55,27.4,55z"/>
	<path class="st125" d="M29.4,55.1L29.4,55.1l0.3,0.3l-0.1,0C29.6,55.3,29.5,55.2,29.4,55.1z"/>
	<path class="st126" d="M29.9,55.2c-0.1,0-0.2-0.1-0.2-0.2l0,0l0,0c0.1,0,0.3,0.1,0.3,0.2C30,55.2,29.9,55.2,29.9,55.2z"/>
	<path class="st127" d="M26.2,52.8L26.2,52.8c-0.1-0.1-0.2-0.3,0-0.3s0.1,0.1,0.1,0.2L26.2,52.8z"/>
	<path class="st128" d="M29.2,53.7L29.2,53.7L29,53.8l-0.1-0.1l0.2-0.1c0,0,0,0,0.1,0C29.2,53.6,29.2,53.7,29.2,53.7z"/>
	<path class="st52" d="M26.8,55.4L26.8,55.4c-0.1,0.1-0.3,0.1-0.4,0l0,0C26.5,55.3,26.7,55.3,26.8,55.4z"/>
	<path class="st129" d="M27.8,54.7c0-0.2,0.1-0.2,0.3-0.2C28,54.6,27.9,54.7,27.8,54.7z"/>
	<path class="st130" d="M28.8,54.5c0.2-0.1,0.1,0.1,0.2,0.1C28.9,54.8,28.8,54.7,28.8,54.5z"/>
	<path class="st131" d="M29.2,54.9C29.2,54.9,29.2,54.9,29.2,54.9c-0.2,0.1-0.2,0-0.2-0.1S29.2,54.8,29.2,54.9z"/>
	<path class="st132" d="M29.7,54.9L29.7,54.9c-0.1,0-0.1,0-0.2-0.1l0-0.1h0.1L29.7,54.9z"/>
	<path class="st119" d="M28.2,54.4L28.2,54.4c0,0.1,0,0.2-0.2,0.2C28,54.4,28.1,54.4,28.2,54.4z"/>
	<path class="st65" d="M29.9,55.2h0.3C30.2,55.3,30,55.3,29.9,55.2C29.9,55.2,29.9,55.2,29.9,55.2z"/>
	<path class="st133" d="M29.2,54.9L29,54.7l0,0C29.1,54.7,29.2,54.7,29.2,54.9L29.2,54.9z"/>
	<path class="st52" d="M28.8,56.6c-0.2,0.1-0.2,0.2,0,0.4c0.2,0.1,0.3,0.3,0.5,0.5c0.1,0.1,0.2,0.2,0,0.3c-0.1,0.1-0.2,0.1-0.3,0
		c-0.2-0.1-0.3-0.3-0.5-0.5c-0.1-0.2-0.3-0.2-0.4,0c-0.1,0.1-0.2,0.2-0.3,0.4c-0.1,0.1-0.2,0.2-0.3,0s0-0.2,0-0.3
		c0.1-0.2,0.3-0.3,0.5-0.5c0.2-0.1,0-0.2,0-0.3s-0.1-0.3-0.3-0.1c-0.1,0.2-0.3,0.2-0.5,0.1c-0.1-0.1-0.1-0.1-0.1-0.2
		c0-0.2,0.1-0.2,0.2-0.3c0,0,0,0,0.1,0c0.1,0,0.3,0,0.4-0.1c0.1,0,0.2,0,0.2-0.1s-0.1-0.1-0.2-0.2c0,0,0,0-0.1-0.1
		c0.1-0.3,0.2-0.2,0.4-0.1s0.3,0.3,0.1,0.5s-0.1,0.2,0,0.3s0.2,0.2,0.3,0s0.3-0.2,0.1-0.4c0.2-0.1,0.3,0,0.5,0.2
		C29,56.4,28.8,56.4,28.8,56.6z"/>
	<path class="st134" d="M28.8,56.6c0-0.1,0.1-0.2,0.3-0.2c0.1-0.2,0-0.3,0-0.4s-0.1-0.1-0.1,0C28.8,56,28.7,56,28.6,56h-0.1
		c0-0.2,0.1-0.3,0.2-0.4s0.2-0.2,0.2-0.1c0.3,0.3,0.8,0.5,0.9,1c0,0.2,0,0.3-0.2,0.3c-0.1,0-0.3-0.1-0.4-0.2
		C29,56.4,28.9,56.4,28.8,56.6z"/>
	<path class="st135" d="M28.6,55.9c0-0.1,0.2-0.1,0.3-0.2s0.1,0,0.2,0.1c0,0.1,0.1,0.3,0.2,0.4c0.2,0.2,0,0.2-0.1,0.2
		c-0.1-0.2-0.3-0.3-0.4-0.3L28.6,55.9z"/>
	<path class="st136" d="M27.7,55.6L27.7,55.6c0.1,0.1,0,0.3-0.1,0.3c0,0-0.1,0-0.1,0c0,0,0,0,0-0.1C27.6,55.7,27.7,55.7,27.7,55.6z"
		/>
	<path class="st137" d="M27.5,55.8L27.5,55.8c0,0.2-0.1,0.3-0.2,0.2h-0.1l0.1-0.2l0,0C27.4,55.9,27.4,55.8,27.5,55.8z"/>
	<path class="st138" d="M27,57.3C27.1,57.3,27.1,57.3,27,57.3L27,57.3C27.1,57.4,27.1,57.4,27,57.3C27,57.2,27,57.3,27,57.3z"/>
	<path class="st139" d="M27.7,51.2L27.7,51.2c0.1-0.3,0.3-0.4,0.5-0.4l0.1,0.1C28.1,51,27.9,51.1,27.7,51.2z"/>
	<path class="st9" d="M26.4,54.9c-0.1,0-0.1,0.1-0.2,0.1s-0.2,0-0.2-0.1s0.3-0.1,0.1-0.3c0-0.1,0-0.1,0-0.2c0-0.1,0-0.1,0-0.2
		c0-0.1-0.1-0.1,0-0.2s0.1-0.3-0.1-0.4s0.1-0.3,0.1-0.4c0.2,0.4,0.6,0.5,0.9,0.8c0.1,0.1,0.3,0,0.4-0.1s0.3-0.2,0.5,0.1
		c-0.1,0.1-0.3,0.1-0.3,0.3s-0.3,0.3-0.5,0.5c-0.1,0.1-0.3,0.2-0.5,0.3c-0.1,0.1-0.3,0.1-0.3-0.1c0,0,0-0.1,0-0.1
		c0.1-0.1,0.3-0.2,0.3-0.4l0,0l0,0c-0.1,0.1-0.3,0.2-0.4,0.3L26.4,54.9z"/>
	<path class="st18" d="M26.3,54.2v0.3c-0.1,0-0.1,0-0.2,0.1c-0.1-0.1-0.1-0.3,0-0.4c0,0,0,0,0,0C26.2,54.2,26.3,54.2,26.3,54.2z"/>
	<path class="st4" d="M26.1,54.9l0.2,0.1c0,0.1,0,0.2-0.1,0.3S26.1,55,26.1,54.9z"/>
	<path class="st140" d="M26.1,53.7c0.3,0.1,0.1,0.2,0.1,0.4l0,0C26.2,54,26.1,53.9,26.1,53.7C26.2,53.7,26.2,53.7,26.1,53.7z"/>
	<path class="st5" d="M26.1,54.6c0-0.1,0-0.3,0.2-0.1C26.3,54.6,26.3,54.6,26.1,54.6L26.1,54.6L26.1,54.6z"/>
	<path class="st141" d="M26.3,54.2c-0.1,0-0.2,0-0.2-0.1V54c0,0,0,0,0.1,0l0,0C26.2,54.1,26.3,54.1,26.3,54.2z"/>
	<path class="st9" d="M26.2,54L26.2,54c-0.1-0.1-0.2-0.2-0.1-0.3L26.2,54z"/>
	<path class="st142" d="M28.2,50.8c-0.2,0.1-0.4,0.2-0.5,0.3l-0.3,0.1h-0.1C27.6,51,27.8,50.7,28.2,50.8L28.2,50.8z"/>
	<path class="st143" d="M28.2,50.7c0.1-0.2,0.2-0.1,0.3,0s0,0,0,0H28.2z"/>
	<path class="st39" d="M32.1,49.2L32.1,49.2c0-0.2-0.2-0.4,0.1-0.6c0,0-0.1-0.2-0.1-0.3c0-0.1,0-0.1,0-0.2c0-0.1,0-0.2,0.1-0.3
		s0.2,0.1,0.2,0.1c0,0,0.1,0.1,0.1,0.1c0.1,0.2,0,0.4,0,0.6s0,0.3,0,0.4l0,0c0,0.1,0,0.3-0.2,0.3S32.1,49.4,32.1,49.2z"/>
	<path class="st144" d="M32.7,48.5L32.7,48.5c-0.3-0.2-0.1-0.4-0.2-0.6s0-0.2,0-0.2s0.1-0.2,0.2-0.2c0.1-0.2,0.1-0.5,0.4-0.6
		c0.1,0,0,0.1,0.1,0.2s-0.2,0.2,0,0.3c0,0,0,0.1,0,0.1l0,0.1c-0.2,0.2-0.4,0.4-0.4,0.7C32.6,48.3,32.6,48.4,32.7,48.5
		C32.7,48.5,32.7,48.5,32.7,48.5z"/>
	<path class="st145" d="M32.1,49.2c0,0.1,0.1,0.1,0.3,0.1c0.1,0,0.1,0,0.2,0v0.1c0,0.1,0,0.2-0.1,0.3s-0.1,0.2-0.2,0
		c-0.1-0.1-0.1-0.2-0.2-0.2c-0.1,0-0.2,0-0.2-0.1s-0.1-0.1,0-0.2C32,48.9,32,49.2,32.1,49.2z"/>
	<path class="st146" d="M32.6,47.7c-0.1,0.3-0.1,0.6,0,0.9l-0.1,0.1c0,0,0,0-0.1,0c0,0,0,0,0,0c-0.2,0,0-0.2,0-0.3s0-0.2,0-0.3
		c0-0.1-0.1-0.2-0.1-0.3c0,0,0,0,0-0.1s0.1-0.1,0.2-0.1S32.6,47.6,32.6,47.7z"/>
	<path class="st147" d="M33.1,48.6c-0.1,0.1,0,0.3-0.2,0.3c-0.1,0-0.1,0-0.2,0c0,0,0-0.1,0-0.2c0,0,0,0,0,0c0.1-0.2,0.3-0.3,0.5-0.4
		C33.3,48.4,33.3,48.5,33.1,48.6z"/>
	<path class="st15" d="M33.1,46.9c-0.2,0.1-0.3,0.4-0.3,0.6c-0.1,0.1-0.2,0-0.2-0.1c0-0.1,0-0.2,0-0.2c0-0.1,0.1-0.2,0.1-0.2
		c0.1-0.1,0.2-0.2,0.4-0.2C33.1,46.8,33.2,46.8,33.1,46.9C33.1,46.9,33.1,46.9,33.1,46.9z"/>
	<path class="st148" d="M32.7,48.2c0.1-0.3,0.2-0.6,0.5-0.8c0.1,0.2,0,0.3-0.1,0.3s-0.2,0.6-0.4,0.8l0,0
		C32.6,48.4,32.6,48.3,32.7,48.2z"/>
	<path class="st149" d="M33.1,46.2c0-0.2-0.1-0.4,0.2-0.5c0,0.2,0,0.4,0,0.6s0,0.2-0.1,0.2S33.2,46.3,33.1,46.2
		C33,46.2,33.1,46.2,33.1,46.2z"/>
	<path class="st148" d="M32.7,46.4c0-0.1,0-0.2,0.1-0.2c0-0.1,0-0.2,0.1-0.2s0,0.2,0.1,0.2c-0.1,0.2-0.2,0.4-0.3,0.6
		c-0.1,0-0.1,0-0.1-0.1C32.7,46.6,32.7,46.5,32.7,46.4z"/>
	<path class="st150" d="M33.1,47.7c0-0.1,0.2-0.2,0.1-0.3l0,0c0.1,0,0.1,0,0.1,0.1c0,0.1,0,0.3,0,0.5C33.1,48,33.2,47.7,33.1,47.7z"
		/>
	<path class="st151" d="M32.5,49.8c0-0.1,0-0.2,0.1-0.3h0v0.4L32.5,49.8z"/>
	<path class="st152" d="M32.7,46.8L32.7,46.8l0.1,0.2l-0.1,0.2c-0.2,0-0.1-0.1-0.2-0.2s0,0,0-0.1c0,0,0-0.1,0-0.1L32.7,46.8
		C32.6,46.8,32.7,46.8,32.7,46.8z"/>
	<path class="st153" d="M33.1,48.6c0.1,0,0-0.1,0.1-0.2s0.2,0.1,0.1,0.2S33.2,48.7,33.1,48.6z"/>
	<path class="st154" d="M33.1,46.9v-0.1c0.1,0.1,0.3,0.1,0.1,0.3C33.1,47,33.1,47,33.1,46.9z"/>
	<path class="st151" d="M32.6,49.4h-0.1l0.2-0.3L32.6,49.4z"/>
	<path class="st155" d="M33.3,47.5L33.3,47.5l-0.1-0.2h0.1C33.3,47.4,33.4,47.4,33.3,47.5z"/>
	<path class="st156" d="M32.5,48.7L32.5,48.7l0.1,0.4C32.4,49,32.6,48.8,32.5,48.7z"/>
	<path class="st46" d="M23.8,49.2c0.1-0.1,0.1-0.1,0-0.2c0-0.2,0-0.5-0.1-0.7c0-0.2-0.1-0.4,0.2-0.5c0.1,0,0.1,0.1,0.2,0.1l0.1,0.1
		c0.1,0.1,0.1,0.3,0,0.4c-0.1,0.1-0.1,0.2,0,0.3v0.2c0,0.1,0,0.2,0,0.4c0,0.2-0.2,0.1-0.2,0.2l0,0C23.9,49.5,23.8,49.4,23.8,49.2z"
		/>
	<path class="st61" d="M24.3,48.7c-0.1,0-0.3-0.1-0.1-0.3s0-0.3,0-0.5c-0.1-0.1-0.1-0.2-0.1-0.4c0-0.1,0.1-0.2,0-0.3
		c0-0.2,0-0.4,0.1-0.5c0,0,0.1,0,0.1,0c0,0,0.1,0,0.1,0.1c-0.1,0.1,0,0.2-0.1,0.3c0-0.1,0-0.1,0-0.2c0,0,0,0,0.1,0c0,0,0,0,0,0
		c0.1,0.1,0.2,0,0.3-0.1s0.1-0.1,0.2,0c0,0.1,0,0.2,0,0.3v0.1c-0.2,0.3-0.5,0.6-0.4,1c0,0.1,0,0.2-0.1,0.3L24.3,48.7z"/>
	<path class="st157" d="M24.7,49.4l-0.3,0.5c0,0.1-0.1,0.1-0.2,0.1s-0.2-0.2-0.1-0.4s0-0.1,0.1-0.1s0.2-0.3,0.4-0.3
		C24.7,49.3,24.7,49.3,24.7,49.4L24.7,49.4z"/>
	<path class="st158" d="M24.7,47.7l-0.4,0.8l0,0l0,0c0-0.1,0-0.2,0-0.3c0.1-0.3,0.2-0.6,0.4-0.8c0,0,0.1-0.1,0.2-0.1s0,0.1,0,0.2
		S24.8,47.7,24.7,47.7z"/>
	<path class="st113" d="M24.4,46.9L24.4,46.9C24.4,46.9,24.4,46.9,24.4,46.9v-0.1c-0.1-0.1-0.1-0.3,0-0.4l0.1-0.2
		c0-0.1,0.1-0.2,0.2-0.1s0,0.1,0.1,0.2C24.6,46.5,24.4,46.6,24.4,46.9z"/>
	<path class="st26" d="M24.9,47.5c0,0,0-0.1,0-0.2S24.8,47.4,24.9,47.5c-0.1,0-0.2-0.3-0.1-0.4l0,0c0.1,0,0.1-0.3,0.3-0.1L25,47.1
		c0,0.1,0,0.3,0.1,0.4c0,0.1-0.1,0.2,0,0.3c0,0,0.1,0.1,0,0.1c0,0,0,0,0,0c-0.1,0-0.1-0.1-0.1-0.1S24.9,47.6,24.9,47.5z"/>
	<path class="st159" d="M24.7,45.8L24.7,45.8c0-0.1,0.2-0.1,0.2-0.1c0.1,0.2,0.1,0.5,0,0.8c-0.1-0.1,0-0.3-0.2-0.3L24.7,45.8z"/>
	<path class="st15" d="M24.7,48.6c0,0,0,0.1,0,0.2c0,0.1-0.1,0.2-0.2,0.2c-0.1,0-0.1,0-0.1-0.1c0,0,0,0,0,0c0-0.1,0-0.2,0.1-0.3
		c0,0,0.1-0.1,0.2-0.1S24.8,48.5,24.7,48.6z"/>
	<path class="st160" d="M24.9,47.5v0.3c0,0.1,0,0.2-0.1,0.2s0-0.1,0-0.2s0-0.1-0.1-0.1L24.9,47.5z"/>
	<path class="st161" d="M24.9,49.3l0.1,0.2c-0.1,0.1-0.2-0.1-0.3,0l0,0C24.7,49.4,24.7,49.3,24.9,49.3L24.9,49.3z"/>
	<path class="st20" d="M24.3,49.6l-0.1,0.1c0-0.1,0-0.2-0.2-0.2s0.2,0,0.2-0.1s0,0,0,0L24.3,49.6z"/>
	<path class="st162" d="M25,46.9c-0.1-0.1-0.1,0.2-0.3,0.1s0-0.2,0.1-0.2S25.1,46.7,25,46.9z"/>
	<path class="st84" d="M24.7,48.6L24.7,48.6c-0.1-0.1,0-0.2,0.1-0.2c0.1,0,0.1,0.1,0.1,0.1c0,0,0,0,0,0
		C24.9,48.6,24.8,48.6,24.7,48.6z"/>
	<path class="st163" d="M25,47.5c-0.1-0.1-0.1-0.3-0.1-0.4C25.1,47.2,25.1,47.4,25,47.5z"/>
	<path class="st164" d="M24.3,49.3L24.3,49.3c0-0.2,0-0.3,0-0.4C24.3,49,24.3,49.2,24.3,49.3z"/>
	<path class="st165" d="M24.3,48.2v0.3l0,0V48.2C24.3,48.2,24.3,48.1,24.3,48.2z"/>
	<path class="st166" d="M24.8,49.3c0,0-0.1,0.1-0.1,0.2c-0.2,0,0-0.1-0.1-0.2L24.8,49.3z"/>
	<path class="st167" d="M26.8,44.8c-0.1,0-0.2,0-0.2-0.1s0.1-0.1,0.2-0.1c0.5,0,1.1,0,1.6,0h0.8c0.1,0,0.3-0.1,0.3,0.1
		s-0.2,0.1-0.3,0.1c-0.3,0.1-0.7,0.1-1,0.1C27.7,44.9,27.2,44.9,26.8,44.8z"/>
	<path class="st168" d="M26.8,44.8h2.4v0.1l0,0h-0.3c-0.1,0-0.3-0.1-0.3,0.1c0,0,0.1,0.1,0.1,0.2c0,0,0,0.1,0,0.1
		c0,0.1-0.1,0.2-0.2,0.3h-0.1c-0.1-0.1-0.1-0.3-0.1-0.4c0,0,0,0,0,0l0,0c0,0-0.2,0-0.2,0s-0.1-0.2-0.2-0.1c-0.1,0-0.1,0-0.1-0.1
		c0-0.1,0.1-0.1,0.2-0.1C27.5,44.9,27.1,44.9,26.8,44.8z"/>
	<path class="st10" d="M26.9,44.3c0.1-0.2,0.4-0.2,0.4-0.4c0.2,0,0.4-0.2,0.6-0.3c0,0.2,0.1,0.3-0.2,0.3s0,0.2-0.1,0.3
		s-0.2,0-0.2,0.1c-0.1,0.2-0.3,0.1-0.4,0.1S26.9,44.4,26.9,44.3z"/>
	<path class="st169" d="M28.4,44c-0.2,0-0.3,0.1-0.3-0.2s0.2-0.2,0.3-0.2s0.3,0.1,0.3,0.3S28.6,44,28.4,44z"/>
	<path class="st8" d="M27.8,44.3c0,0,0-0.1,0-0.2c0.3-0.1,0.6-0.1,0.9,0.2c-0.1,0.1-0.2,0.1-0.4,0.1S27.9,44.4,27.8,44.3z"/>
	<path class="st4" d="M27.9,43.4c0.2-0.1,0.5-0.1,0.7,0C28.4,43.5,28.1,43.5,27.9,43.4z"/>
	<path class="st170" d="M29,44.5h-1.3c0.1-0.2,0.3-0.1,0.4-0.1c0.3,0,0.5,0,0.8,0C28.9,44.4,29,44.4,29,44.5z"/>
	<path class="st171" d="M28.1,44.4c-0.1,0-0.3,0-0.4,0.1c-0.1,0-0.3,0-0.3-0.1c0-0.1,0.2-0.1,0.2-0.1s0.1,0.1,0.1,0.1
		C27.9,44.3,28,44.3,28.1,44.4C28.1,44.4,28.1,44.4,28.1,44.4z"/>
	<path class="st172" d="M28.1,44.4L28.1,44.4c0.1-0.1,0.1,0,0.2,0c0.2,0,0.3,0,0.5,0c0.3,0,0.3,0,0.2,0.1
		C28.7,44.5,28.4,44.4,28.1,44.4z"/>
	<path class="st173" d="M29.3,45.1c-0.2,0.2,0,0.5-0.1,0.7l0,0c0,0,0-0.1,0-0.1C29.2,45.4,29.2,45.2,29.3,45.1
		C29.4,44.9,29.3,45,29.3,45.1z"/>
	<path class="st174" d="M29.2,45v0.8C29,45.5,29,45.2,29.2,45L29.2,45L29.2,45z"/>
	<path class="st4" d="M29.4,45.9c-0.1-0.2,0-0.5,0-0.7C29.5,45.4,29.4,45.7,29.4,45.9z"/>
	<path class="st175" d="M29.8,45.6c-0.1-0.2-0.1-0.3,0-0.4h0.1C29.9,45.3,29.8,45.4,29.8,45.6z"/>
	<path class="st4" d="M28.5,43.2c-0.1,0.1-0.2,0.1-0.3,0C28.3,43.1,28.4,43.1,28.5,43.2z"/>
	<path class="st176" d="M28.8,44.4h-0.5l0,0h0.4H28.8z"/>
	<path class="st177" d="M28.3,44.3L28.3,44.3h-0.2h-0.3l0,0H28.3z"/>
	<path class="st178" d="M28.4,43C28.4,43,28.4,43.1,28.4,43c-0.1,0-0.1,0-0.1-0.1c0,0,0-0.1,0.1-0.1S28.4,42.9,28.4,43z"/>
	<path class="st9" d="M30,50.5c0,0.1,0.1,0.2-0.1,0.2c-0.5,0-1,0.1-1.3-0.3c-0.1-0.1-0.2-0.1-0.3,0c-0.4,0.2-0.9,0.3-1.4,0.3
		c0,0-0.1,0-0.1-0.1s0-0.4,0.2-0.5c0.9,0,1.7,0,2.6,0c0.2,0.1,0.3,0,0.5,0.1 M29.9,50.2C29.9,50.2,29.9,50.2,29.9,50.2
		c-0.1,0-0.2,0-0.3,0l0,0H29.9c0,0,0.1,0.1,0.1,0.2c0,0,0,0,0,0.1L29.9,50.2z"/>
	<path class="st179" d="M29.5,50.1h-2.2c-0.1,0-0.3,0-0.4,0.1v-0.2c0.7,0,1.5,0,2.2,0c0.3-0.1,0.6-0.1,0.8,0
		C29.8,50.2,29.6,50.2,29.5,50.1z"/>
	<path class="st180" d="M29.8,50.9c0.1,0,0.1,0.1,0.1,0.1s-0.2,0-0.3,0l-0.3-0.2C29.5,50.8,29.6,50.8,29.8,50.9z"/>
	<path class="st181" d="M29.5,50.4C29.5,50.4,29.5,50.3,29.5,50.4c0.1-0.2,0.2-0.1,0.3-0.1l0,0l0.1,0.3l-0.1-0.1
		C29.7,50.4,29.6,50.4,29.5,50.4z"/>
	<path class="st182" d="M30,50.8c0,0.1,0.1,0.3-0.1,0.2S29.9,50.9,30,50.8L30,50.8z"/>
	<path class="st182" d="M30.2,50.8c0,0.1,0.1,0.2,0,0.2C30.1,51,30.1,50.9,30.2,50.8L30.2,50.8z"/>
	<path class="st183" d="M29.5,50.1h0.4v0.1C29.8,50.2,29.6,50.3,29.5,50.1z"/>
	<path class="st184" d="M30.4,50.9c-0.1,0,0,0.1,0,0.1c-0.2,0-0.1-0.2-0.1-0.3C30.4,50.8,30.4,50.9,30.4,50.9
		C30.4,50.9,30.4,50.9,30.4,50.9z"/>
	<path class="st11" d="M24,47.9c-0.1-0.1-0.1-0.1-0.1,0s0,0.3,0,0.4c-0.2,0-0.2-0.2-0.3-0.2s0-0.4-0.1-0.6s0-0.2,0.1-0.3
		c0.3,0,0.4,0.3,0.5,0.5C24.1,47.8,24.1,47.8,24,47.9C24.1,47.8,24,47.9,24,47.9z"/>
	<path class="st85" d="M23.5,48.1c0.2,0,0.2,0.2,0.3,0.2c0.1,0.2,0.1,0.5,0,0.7l0,0C23.5,48.8,23.4,48.5,23.5,48.1z"/>
	<path class="st18" d="M23.8,49.2c0,0.1,0.1,0.2,0.2,0.2c-0.1,0.1,0,0.2,0,0.4c-0.2,0-0.2-0.4-0.4-0.3l0,0c-0.1-0.1-0.2-0.3-0.1-0.5
		C23.7,49.1,23.8,49.2,23.8,49.2z"/>
	<path class="st185" d="M23.5,47.3c0,0.1,0,0.2-0.1,0.3c-0.1-0.3-0.1-0.6,0-0.8c0,0,0,0,0.1,0h0.1c0,0,0.1,0.1,0.1,0.1
		C23.7,47,23.6,47.1,23.5,47.3z"/>
	<path class="st9" d="M23.4,46.7L23.4,46.7c0-0.2,0-0.5,0-0.7h0.1c0,0.1,0.1,0.3,0.1,0.4C23.6,46.6,23.5,46.7,23.4,46.7z"/>
	<path class="st186" d="M23.6,49.1c0,0.2,0,0.3,0.1,0.5c-0.1,0-0.1-0.1-0.1-0.2C23.5,49.3,23.4,49.2,23.6,49.1L23.6,49.1z"/>
	<path class="st187" d="M23.5,49.1c0,0.1,0.1,0.2,0,0.3h0h-0.1c0-0.1,0-0.2,0-0.3C23.4,49,23.4,49.1,23.5,49.1z"/>
	<path class="st188" d="M32.6,47.6c0,0-0.2,0-0.2,0.1s-0.2,0-0.3-0.1c-0.1-0.1-0.2-0.1-0.3-0.1l0,0v-0.1c0-0.1,0-0.3,0-0.4l0.1-0.1
		h0.1c0-0.1,0-0.2,0.2-0.1s0,0.3,0.2,0.5c-0.1-0.3,0-0.3,0.2-0.4s0.1-0.1,0.2-0.1v0c0,0.2,0,0.3,0,0.5
		C32.6,47.4,32.6,47.5,32.6,47.6z"/>
	<path class="st175" d="M32.4,45.2L32.4,45.2c0.1,0.2,0.3,0,0.4,0.1s0,0.1,0,0.1c-0.2,0.2-0.2,0.2-0.3,0.7c-0.1,0,0-0.2-0.1-0.2
		c-0.1-0.2-0.1-0.5-0.1-0.7L32.4,45.2z"/>
	<path class="st169" d="M32.4,46.9L32.4,46.9c-0.3,0.2-0.1,0.4-0.1,0.6C32,47.4,32,47.1,32,46.9c-0.1,0-0.1,0.1-0.1,0.1
		s0,0.1-0.1,0.1v-0.2c0-0.1,0-0.1,0-0.2c0,0,0-0.1,0-0.2c0.1,0,0.2,0,0.2,0.1c0,0,0,0,0,0L32.4,46.9z"/>
	<path class="st11" d="M32,46.2v-0.3l0.3,0.2c-0.1,0.1,0,0.1,0,0.2s-0.1,0.2-0.2,0.1c-0.1,0-0.1-0.1-0.1-0.1
		C32,46.3,31.9,46.2,32,46.2z"/>
	<path class="st189" d="M32.1,46.3l0.1,0.1l-0.1,0.1c-0.1,0-0.2-0.1-0.2,0c-0.1-0.1,0-0.1,0.1-0.2C31.9,46.3,32,46.3,32.1,46.3z"/>
	<path class="st190" d="M32.7,46.8L32.7,46.8c0-0.1,0-0.2,0-0.3V46.8z"/>
	<path class="st8" d="M28.4,45.7c0-0.1,0-0.2,0.1-0.3c0,0,0.1-0.1,0.1-0.1h0.1c0,0,0.1-0.2,0.2,0c0,0.1,0,0.1,0,0.2
		c0,0.1,0,0.2,0,0.3c0,0,0,0.1,0,0.1 M29,45.9c0,0,0-0.1,0.1-0.1l0,0c0,0.1,0.1,0.1,0,0.2c0,0.1,0,0.1,0,0.2c0,0.1,0.1,0.1,0.1,0.1
		s0,0,0,0l0,0h-1.6c-0.1,0.1-0.3,0.1-0.4,0l0,0c0-0.3,0-0.5,0-0.8c0-0.1,0-0.2,0.1-0.3l0.2,0.1c0.1,0.1,0,0.3,0.1,0.5
		c0.1-0.1,0-0.3,0.1-0.4c0-0.1,0.1-0.1,0.2-0.1c0.3,0.1,0.3,0.3,0.3,0.6c0,0,0,0,0,0s0.2-0.1,0.2-0.1L29,45.9z"/>
	<path class="st191" d="M27.7,46c-0.2-0.2-0.1-0.4-0.1-0.6l0,0c0.1,0.1,0.1,0.2,0.1,0.3C27.7,45.7,27.7,45.8,27.7,46L27.7,46z"/>
	<path class="st192" d="M27.2,45.8L27.2,45.8c-0.1-0.4-0.1-0.4,0-0.5L27.2,45.8z"/>
	<path class="st8" d="M27.7,45.7c-0.1-0.1,0-0.2-0.1-0.3V45h0.1c0,0,0,0.1,0,0.1C27.8,45.3,27.8,45.5,27.7,45.7z"/>
	<path class="st8" d="M29.1,47.2h-1.4c-0.2,0-0.3,0-0.2-0.2s-0.1-0.1-0.1-0.2c0.1-0.1,0.2,0,0.3,0h1.7c0,0,0,0,0,0.1h-0.1
		c0,0-0.1,0-0.1,0c0,0,0,0.1,0,0.1C29.1,47.1,29,47.1,29.1,47.2z"/>
	<path class="st20" d="M28.3,46.4c0.4,0,0.9-0.1,1.3,0.2h-2.3c0-0.1,0.1-0.1,0.1-0.2s0.4,0,0.6,0C28,46.5,28.2,46.4,28.3,46.4z"/>
	<path class="st193" d="M28.3,46.4c-0.3,0-0.7,0-1,0v-0.1h0.4C27.9,46.4,28.1,46.3,28.3,46.4z"/>
	<path class="st194" d="M29.4,46.3L29.4,46.3c0-0.1-0.2-0.1-0.2-0.1s0-0.1,0-0.2C29.3,46.1,29.6,46.1,29.4,46.3L29.4,46.3L29.4,46.3
		z"/>
	<path class="st195" d="M29.3,46.8L29.3,46.8L29.3,46.8c0.1,0.1,0.1,0.2,0.1,0.3c0,0,0,0-0.1,0c0,0,0,0,0,0
		C29.3,47,29.3,46.9,29.3,46.8z"/>
	<path class="st113" d="M24.3,46.4c0,0.1,0,0.3,0,0.4l0,0c-0.2-0.1-0.2-0.2-0.2-0.3c0-0.1,0-0.3-0.1-0.4l0,0L24,45.9
		c0-0.2,0-0.3,0-0.5c0.1-0.1,0.2-0.2,0.2-0.4c0.1,0,0.1-0.1,0.1-0.1c0.1,0.2-0.1,0.4-0.1,0.6c0.2,0,0.1-0.2,0.2-0.2
		c0,0.2,0,0.2,0,0.3C24.3,45.9,24.3,46.1,24.3,46.4z"/>
	<path class="st4" d="M29.4,49.7L29.4,49.7c-0.8,0.1-1.7,0.1-2.5,0c0-0.2,0-0.3,0.2-0.3h2.3c0,0,0,0,0,0.1V49.7
		C29.4,49.6,29.5,49.7,29.4,49.7z"/>
	<path class="st18" d="M29.9,49.2c0,0,0.1,0.1,0,0.2h-3c-0.1,0-0.2,0-0.2-0.1s0.1-0.1,0.1-0.1L29.9,49.2z"/>
	<path class="st48" d="M29.4,49.5L29.4,49.5c0.1,0,0.3-0.2,0.4,0.1c0,0.1,0,0.2-0.2,0.2c-0.1,0-0.2,0-0.2,0v-0.1
		C29.5,49.6,29.5,49.5,29.4,49.5z"/>
	<path class="st18" d="M29.4,49c0,0.1-0.1,0.1-0.2,0.1H27c-0.2,0-0.1-0.1-0.1-0.2s0.2-0.1,0.3-0.1h1.9C29.3,48.8,29.4,48.8,29.4,49z
		"/>
	<path class="st17" d="M26.8,48.7c0-0.1,0-0.1,0.1-0.1h2.9c0.1,0,0.1,0,0.1,0.1L26.8,48.7z"/>
	<path class="st196" d="M29.4,49c-0.1,0-0.1-0.1-0.2-0.1c-0.8,0-1.5,0-2.3,0.1c0-0.2,0.2-0.1,0.3-0.1c0.8,0,1.5,0,2.3,0
		c0.2,0,0.3,0,0.3,0.2S29.6,48.9,29.4,49z"/>
	<path class="st197" d="M31.9,49.4l0.2,0.1c-0.1,0-0.1,0-0.1,0.1s0,0.1-0.1,0.2l-0.2-0.3l-0.1-0.2V49c0.2,0,0.1,0.2,0.2,0.2
		S31.9,49.4,31.9,49.4z"/>
	<path class="st198" d="M32.5,50.6c-0.1-0.1,0-0.3-0.2-0.4c0-0.1,0-0.2,0.1-0.2s0.2,0.2,0.1,0.3S32.5,50.5,32.5,50.6z"/>
	<path class="st199" d="M29.4,47.1L29.4,47.1v0.2c-0.1,0-0.3,0-0.4-0.1c0,0-0.1-0.1,0-0.1C29.1,47,29.3,47,29.4,47.1
		C29.4,47,29.4,47.1,29.4,47.1z"/>
	<path class="st8" d="M29.3,48.5H27c0-0.3,0.1-0.4,0.4-0.4c0.6,0,1.1,0,1.7,0c0.1,0,0.1,0,0.2,0.1c0,0,0.1,0.1,0.1,0.1
		C29.4,48.4,29.3,48.5,29.3,48.5z"/>
	<path class="st200" d="M29.8,48c0,0.1-0.1,0.1-0.2,0.1H27c0,0-0.1,0-0.2-0.1c0.8-0.1,1.6,0,2.3,0C29.4,48,29.6,48,29.8,48z"/>
	<path class="st4" d="M29.8,48h-2.9 M26.9,48h2.9H26.9z"/>
	<path class="st201" d="M29.3,48.4v-0.1c0.2,0,0.4-0.1,0.4,0.3l-0.1,0.1l-0.1-0.1C29.4,48.4,29.3,48.4,29.3,48.4z"/>
	<path class="st18" d="M32.1,46.3h-0.1c-0.1-0.1-0.2-0.2-0.2-0.3c0-0.1,0-0.2,0-0.3s0,0,0,0c0.1,0.2,0,0.3,0.1,0.5L32.1,46.3z"/>
	<path class="st4" d="M27.1,47.8c0-0.1,0-0.2,0.1-0.3h1.9c0.1,0.1,0.2,0.3-0.1,0.3h-1.6C27.3,47.9,27.2,47.9,27.1,47.8z"/>
	<path class="st202" d="M29.1,47.8c0-0.1-0.1-0.2,0-0.3h0.3c0.1,0.1,0.2,0.3-0.1,0.3C29.3,47.9,29.2,47.9,29.1,47.8z"/>
	<path class="st203" d="M31.8,45.7c0,0.1,0,0.2,0,0.4c0,0-0.1,0-0.1,0l0,0l0,0L31.8,45.7L31.8,45.7z"/>
	<path class="st113" d="M31.8,47.5c0.1,0,0.1-0.1,0.1-0.2c0.1,0.2,0.2,0.3,0.5,0.4l0,0c0.1,0.1,0.1,0.2,0.1,0.3l-0.2-0.2
		c-0.1,0.1-0.1,0.2-0.1,0.3c0,0.1,0.1,0.1,0,0.2s-0.2-0.1-0.3-0.2C31.8,48,31.8,47.7,31.8,47.5z"/>
	<path class="st61" d="M31.9,48.2c0.1,0,0.2,0.1,0.3,0.2c0,0.2,0.3,0.3,0.2,0.5l-0.1-0.1c-0.1,0.1,0.2,0.3,0,0.4
		C31.9,48.9,31.8,48.5,31.9,48.2z"/>
	<path class="st204" d="M31.7,48.1v0.3c0,0,0,0-0.1,0s0-0.3,0-0.4L31.7,48.1z"/>
	<path class="st205" d="M31.9,49.4c-0.2,0-0.1-0.1-0.1-0.2l0,0L31.9,49.4z"/>
	<path class="st206" d="M29.5,48.4l0.1,0.1h-0.3C29.3,48.3,29.4,48.4,29.5,48.4z"/>
	<path class="st207" d="M29.5,48.4c-0.1,0-0.2,0-0.2,0.1h-0.1v-0.2C29.4,48.4,29.5,48.2,29.5,48.4z"/>
	<path class="st157" d="M23.7,46c0.1-0.1,0.2,0.2,0.3,0.1l0,0c0.1,0.2,0.1,0.4-0.2,0.5c-0.1,0-0.1-0.1-0.2-0.1
		c-0.1-0.1-0.1-0.2-0.1-0.3C23.6,46.1,23.6,46,23.7,46z"/>
	<path class="st63" d="M23.7,46l0,0.2l0,0v-0.3L23.7,46z"/>
	<path class="st208" d="M31.6,48.4L31.6,48.4l0.1,0.3C31.6,48.6,31.6,48.5,31.6,48.4z"/>
	<path class="st209" d="M29.1,47.8h0.3v0.1h-2.3v-0.1L29.1,47.8z"/>
	<path class="st210" d="M31.8,46.1L31.8,46.1l0.2,0.3l-0.1,0.2c0,0,0.1,0.1,0,0.1s0,0-0.1,0v-0.3C31.7,46.3,31.7,46.2,31.8,46.1z"/>
	<path class="st9" d="M31.7,47c0,0.1,0,0.3,0,0.4C31.6,47.3,31.6,47.1,31.7,47z"/>
	<path class="st4" d="M31.8,46.1v0.3C31.7,46.3,31.7,46.1,31.8,46.1L31.8,46.1z"/>
	<path class="st211" d="M31.8,46.7L31.8,46.7l0.1,0.2C31.6,46.8,31.8,46.7,31.8,46.7z"/>
	<path class="st212" d="M32.4,52c0-0.1,0.1-0.3-0.1-0.4s0-0.1,0.1-0.1l0.1,0.1C32.5,51.7,32.6,51.9,32.4,52z"/>
	<path class="st213" d="M23.4,46.5V46v0.1C23.5,46.2,23.5,46.3,23.4,46.5C23.5,46.5,23.5,46.5,23.4,46.5z"/>
	<path class="st214" d="M23.6,46.4l-0.1-0.2h0.1C23.8,46.1,23.7,46.3,23.6,46.4C23.7,46.4,23.7,46.4,23.6,46.4
		C23.6,46.5,23.6,46.4,23.6,46.4z"/>
	<path class="st10" d="M26.4,53.2c0.2,0,0.2-0.4,0.5-0.3c0.1,0.1,0.2,0.3,0.4,0.3c0.2,0.1,0.3,0.3,0.5,0.5c0,0,0,0.1,0,0.1
		c-0.2,0.3-0.4,0.3-0.7,0c-0.1-0.1-0.3-0.2-0.4-0.3C26.5,53.4,26.4,53.3,26.4,53.2z"/>
	<path class="st215" d="M27.7,53.7c-0.3-0.2-0.4-0.4-0.7-0.5c-0.1,0-0.2-0.1-0.1-0.3c0,0,0,0,0,0l0,0c0.1-0.1,0.1,0,0.2,0.1l0.2,0.2
		l0.3,0.3c0,0,0.1,0.1,0.1,0.1C27.8,53.6,27.7,53.7,27.7,53.7L27.7,53.7z"/>
	<path class="st126" d="M27.3,54.8c0.1-0.2,0.3-0.3,0.5-0.5v0.1L27.3,54.8C27.3,54.9,27.3,54.8,27.3,54.8z"/>
	<path class="st135" d="M27.7,53.7c0-0.1,0.1-0.1,0.1-0.2c0.1,0,0.1,0,0.1,0.1S27.8,53.7,27.7,53.7z"/>
	<path class="st216" d="M28.2,54c-0.1,0-0.2,0-0.2-0.1S28.1,53.9,28.2,54z"/>
	<path class="st217" d="M27.3,54.8L27.3,54.8c0.1,0.1,0.1,0.1,0.1,0.1c-0.2,0.1-0.4,0.2-0.5,0.4c-0.1,0.1-0.2,0.1-0.3,0
		s-0.1-0.1,0-0.2l0,0c0,0,0,0,0.1,0c0,0.2,0.1,0.2,0.3,0.1S27.1,54.9,27.3,54.8z"/>
	<path class="st218" d="M29.8,52.8c0-0.1,0.1,0,0.1,0s0,0,0,0.1c0,0.3-0.1,0.3-0.4,0.4c0,0,0,0,0-0.1c0,0,0,0,0,0v-0.1l0,0
		C29.6,53,29.7,52.9,29.8,52.8z"/>
	<path class="st219" d="M29.4,53.2L29.4,53.2c0,0.3-0.1,0.4-0.3,0.3c0,0,0-0.1,0-0.2C29.3,53.3,29.4,53.3,29.4,53.2z"/>
	<path class="st220" d="M29.2,53.4v0.2c0,0,0,0.1,0,0.1s0,0-0.1,0l0,0C29.1,53.5,29.2,53.5,29.2,53.4z"/>
	<path class="st221" d="M30.4,54.8c0.1,0.1,0.1,0.2,0,0.3V54.8z"/>
	<path class="st10" d="M29.2,53.6C29.2,53.6,29.2,53.6,29.2,53.6c0.1-0.2,0.3-0.2,0.3-0.3s0.4-0.1,0.4-0.4c0.4,0.3,0.4,0.3,0.1,0.6
		c0,0.1-0.1,0.1-0.1,0.2s-0.1,0-0.1,0C29.6,54,29.4,53.9,29.2,53.6L29.2,53.6z"/>
	<path class="st222" d="M27.1,53l-0.1-0.1v-0.1c0.1,0,0.2,0.1,0.3,0.1C27.2,53.1,27.2,53.1,27.1,53z"/>
	<path class="st223" d="M27.1,53c0,0,0.1,0,0.1-0.1s0.1,0.1,0.2,0.2L27.1,53z"/>
	<path class="st29" d="M29.8,52.8c-0.1,0.2-0.2,0.2-0.3,0.3C29.5,53,29.6,52.8,29.8,52.8C29.8,52.8,29.8,52.8,29.8,52.8z"/>
	<path class="st113" d="M26.5,55.3c0.1,0.1,0.2,0,0.3,0h0.1l-0.1,0.1h-0.4L26.5,55.3C26.4,55.2,26.4,55.2,26.5,55.3z"/>
	<path class="st224" d="M26.6,55L26.6,55c-0.2,0-0.1-0.1-0.1-0.2l0,0c0.1-0.1,0.2-0.3,0.5-0.3C26.9,54.8,26.7,54.9,26.6,55L26.6,55z
		"/>
	<path class="st225" d="M26.5,55.3L26.5,55.3c-0.1,0-0.2-0.1-0.1-0.2C26.4,55.1,26.4,55.2,26.5,55.3z"/>
	<path class="st17" d="M27.3,56.1c0.1,0,0.2-0.1,0.2-0.2c0.2,0,0.2-0.1,0.3-0.3s0.2,0.1,0.4,0.2C28,56.1,27.6,56,27.3,56.1
		L27.3,56.1z"/>
	<path class="st168" d="M26.6,55l0.3-0.4c0,0,0-0.1,0-0.1c0,0,0,0,0,0c0,0,0-0.1,0-0.1s0.1,0.1,0.1,0.1C27,54.7,26.8,54.9,26.6,55z"
		/>
	<path class="st21" d="M26.9,54.5v0.1c-0.2,0-0.3,0.2-0.5,0.3C26.4,54.6,26.7,54.6,26.9,54.5z"/>
	<path class="st226" d="M32.4,48v-0.3C32.5,47.8,32.4,48,32.4,48L32.4,48z"/>
	<path class="st119" d="M32.6,47.6v-0.3 M32.6,47.3C32.6,47.3,32.7,47.3,32.6,47.3c0,0.2,0.1,0.3,0.2,0.3c0,0.1-0.2,0.1-0.2,0.1
		L32.6,47.3z"/>
	<path class="st146" d="M32.7,48.2v0.3C32.6,48.4,32.6,48.3,32.7,48.2z"/>
	<path class="st227" d="M32.4,49.4c0.1,0.1,0.1,0.2,0.1,0.3C32.3,49.6,32.3,49.5,32.4,49.4z"/>
	<path class="st228" d="M32.6,47.4L32.6,47.4c-0.1-0.2-0.1-0.3-0.1-0.5c0.1,0.1,0,0.2,0.1,0.3C32.7,47.2,32.7,47.3,32.6,47.4z"/>
	<path class="st10" d="M32.6,46.9v0.4l0,0c-0.1-0.1-0.1-0.3,0-0.5C32.6,46.8,32.6,46.9,32.6,46.9z"/>
	<path class="st229" d="M24,47.8L24,47.8c0-0.1-0.1-0.2,0-0.3s0.1,0,0.1,0.1c-0.2,0.1,0.1,0.2,0,0.3l0,0C24,47.9,24.1,47.9,24,47.8z
		"/>
	<path class="st61" d="M24,47.8l0.1,0.1C24,48.1,24,48,24,47.8L24,47.8z"/>
	<path class="st230" d="M24.2,47.7C24,47.6,24,47.7,24,47.8c-0.2-0.1-0.3-0.4-0.5-0.5c-0.1-0.1-0.1-0.1,0-0.2s0-0.2,0-0.3
		s0.1,0,0.1,0c0,0.2,0.1,0.3,0.2,0.5c-0.1-0.1-0.1-0.2,0-0.3s0.2,0,0.3,0.1s0,0.2,0.1,0.3S24.3,47.6,24.2,47.7z"/>
	<path class="st115" d="M24.2,47.3c-0.1,0,0-0.2-0.1-0.2c0-0.2-0.3-0.3-0.3-0.5c0-0.1,0-0.1,0.1-0.1c0.1,0,0.2,0,0.2-0.2
		s0-0.2,0-0.3c0.2,0.1,0.2,0.2,0.2,0.4c0,0.1,0,0.3,0.1,0.4C24.1,46.9,24.3,47.2,24.2,47.3z"/>
	<path class="st144" d="M24.3,48.2L24.3,48.2c-0.1-0.4,0.1-0.8,0.4-1.1v0.3C24.6,47.6,24.5,47.9,24.3,48.2z"/>
	<path class="st231" d="M24.3,46.8L24.3,46.8v0.3C24.3,47.1,24.2,46.9,24.3,46.8z"/>
	<path class="st134" d="M29.1,46c0,0-0.1,0-0.1,0c0-0.3,0-0.6,0-0.8c0,0.1,0,0.2,0,0.3s0,0-0.1,0v-0.3c0,0,0-0.1,0-0.1
		c0,0,0-0.1,0-0.1c0.1-0.1,0.1-0.1,0.2,0C29.1,45.3,29.1,45.7,29.1,46z"/>
	<path class="st232" d="M28.3,46L28.3,46c-0.1-0.3-0.1-0.5-0.1-0.8s0-0.2,0.1-0.3c0,0.3,0,0.5,0.1,0.8C28.5,45.8,28.4,45.9,28.3,46z
		"/>
	<path class="st40" d="M27.8,45.1C27.8,45.1,27.8,45.1,27.8,45.1c0.2-0.2,0.2-0.1,0.3,0.1c0,0,0,0.1,0,0.1c0,0,0,0,0,0l-0.2,0.1
		c0,0-0.1,0-0.1,0C27.7,45.3,27.7,45.2,27.8,45.1z"/>
	<path class="st233" d="M28,45.3v-0.1c0.1-0.1,0.1,0.1,0.2,0.1c0.1,0.2,0.1,0.5,0.1,0.8c-0.1-0.1-0.1-0.2,0-0.3
		C28.2,45.6,28.2,45.4,28,45.3z"/>
	<path class="st49" d="M29.1,46v-1c0,0,0,0,0.1,0c0,0.3-0.1,0.5,0.1,0.8v0.1C29.1,45.8,29.2,46,29.1,46z"/>
	<path class="st234" d="M28.9,45L28.9,45c0,0.1-0.1,0.1-0.1,0.1c0,0-0.1,0-0.1,0h-0.1c-0.1-0.1-0.1-0.2,0-0.2
		C28.6,44.8,28.8,44.9,28.9,45z"/>
	<path class="st235" d="M28.7,45.3c0,0-0.1,0.1-0.1,0.1v-0.1c0-0.1,0-0.2,0.1-0.2S28.8,45.2,28.7,45.3z"/>
	<path class="st236" d="M28.3,46c0.1-0.1,0.1-0.2,0.1-0.3l0,0C28.4,45.8,28.6,46,28.3,46z"/>
	<path class="st237" d="M28.6,45.1c0,0.1,0,0.1,0,0.2C28.6,45.2,28.6,45.2,28.6,45.1C28.5,45.1,28.5,45,28.6,45.1
		C28.8,45,28.7,45,28.6,45.1z"/>
	<path class="st238" d="M29.8,50.3c-0.1,0.1-0.2,0-0.3,0.1C29.6,50.2,29.7,50.3,29.8,50.3z"/>
	<path class="st239" d="M29.5,50.4c0.1,0,0.2-0.1,0.3,0C29.7,50.4,29.6,50.5,29.5,50.4z"/>
	<path class="st18" d="M23.8,46.6c0.1,0.2,0.3,0.3,0.3,0.6c-0.1,0-0.1-0.3-0.2,0c0,0.1,0,0.2,0,0.3c-0.2-0.1-0.3-0.4-0.3-0.6l0,0h0
		v-0.1c0-0.1,0-0.2,0-0.2C23.7,46.5,23.7,46.5,23.8,46.6z"/>
	<path class="st240" d="M23.8,46.6c-0.1-0.1-0.3-0.1-0.3,0.1h-0.1v-0.3c0.1,0,0.1,0,0.1-0.1l0.1,0.1v-0.1c0.1,0,0.1,0.1,0.2,0.1
		L23.8,46.6z"/>
	<path class="st241" d="M31.8,47.1c0.1,0,0-0.2,0.1-0.3s0.1-0.1,0.1,0s0,0.2-0.1,0.2S31.9,47.2,31.8,47.1z"/>
	<path class="st12" d="M29,45.4c0-0.2,0-0.3,0.1-0.5c0,0.3,0.1,0.7,0,1l-0.1-0.1C29,45.7,28.9,45.6,29,45.4z"/>
	<path class="st242" d="M27.8,45.4L27.8,45.4v0.4c0,0.1,0,0.1-0.1,0.1v-0.1C27.8,45.8,27.7,45.6,27.8,45.4z"/>
	<path class="st243" d="M28.6,45.1C28.6,45.1,28.6,45.1,28.6,45.1c0-0.2,0.1-0.2,0.2-0.1c0.1,0.1,0.1,0.2,0,0.3h0
		C28.7,45.2,28.8,45.1,28.6,45.1z"/>
	<path class="st244" d="M29.2,46.1c0.1,0,0.2,0,0.2,0.1C29.4,46.2,29.1,46.4,29.2,46.1z"/>
	<path class="st245" d="M28.8,45.3V45h0.1v0.2C28.8,45.2,28.9,45.4,28.8,45.3z"/>
	<path class="st246" d="M29,45.4c0,0.1,0.1,0.3,0,0.4L29,45.4L29,45.4z"/>
	<path class="st4" d="M27.8,45.4c0,0.2,0.1,0.3-0.1,0.5v-0.3c0-0.2,0-0.4,0.1-0.5V45.4z"/>
	<path class="st247" d="M29.4,47.1h-0.3c0,0-0.1-0.1-0.1-0.2s0.2,0,0.2,0h0.1L29.4,47.1z"/>
	<path class="st248" d="M29.3,46.8c0,0.2-0.2,0.1-0.2,0C29.1,46.8,29.2,46.9,29.3,46.8z"/>
	<path class="st249" d="M29.4,49.5c0.1,0,0.2,0,0.3,0.1c-0.1,0.1-0.2,0.1-0.3,0.1S29.4,49.5,29.4,49.5z"/>
</g>
</svg>
