<svg xmlns="http://www.w3.org/2000/svg" viewBox="0 0 183.68 304.26"><defs><style>.cls-1{fill:#3fa9f5;}</style></defs><g id="Layer_2" data-name="Layer 2"><g id="Layer_1-2" data-name="Layer 1"><path class="cls-1" d="M77.19,98.78l17.55,29c2-.78,3.88-1.56,5.78-2.35q-13-19.53-27.46-39.7-9.94-13.87-19.87-27Z"/><path class="cls-1" d="M180.35,257.58c6.17-1.72,2.11-26.44.83-89.88-.4-19.91-.26-30.22-.83-30.24-.79,0-2.45,20-6.06,97.28-13.41-19.86-37.24-54.26-50.93-74.28-2.6,1.21-5.19,2.38-7.79,3.51,9,15,16.68,27.54,22.53,36.87,5.19,8.27,11.69,18.48,20.3,30.65C171.1,249.43,177.46,258.39,180.35,257.58Z"/><path class="cls-1" d="M176.74,283.06c-22.48-32.2-47.65-72.69-72.39-101.9,11.43,28.11,29.2,58.92,45.46,98.68L41.44,280c-66.65-140.72,156.32-84.5,139.74-214.66C173.28,7,103.73-6.3,54.94,2.44,43.05,5.81,3.91,8.5,2.62,22.23c2.07,38.1,5.57,77.07,9.21,115.09,10,86,7.41-91.87,6.79-109.22,38.84-8.19,84.92-12.88,119,11.23,32.23,25.54,13.46,74.39-21.82,86.49-68.5,26.58-141.28,54.77-107.09,144,6.53,11.52,9.87,30.4,23.35,34.16.79-.22,141.33.49,142,.26C186.4,302.77,183.19,289.66,176.74,283.06Z"/></g></g></svg>